<svg xmlns="http://www.w3.org/2000/svg" width="72" height="72" viewBox="0 0 72 72">
    <g fill="#FFFFFF" fill-rule="evenodd" transform="translate(1 1)">
      <circle cx="35" cy="35" r="35" />
        <g fill="#2B2B2B" fill-rule="nonzero" transform="translate(13 13)">
            <circle cx="21.953" cy="7.628" r="4.651"/>
            <path d="M36.186 24.884c-1.116 0-2.14.232-3.07.65l-6.79-11.813a7.55 7.55 0 0 0 3.116-6.093A7.483 7.483 0 0 0 21.953.14a7.483 7.483 0 0 0-7.488 7.488c0 2.512 1.21 4.698 3.116 6.093l-6.837 11.814c-.93-.419-2-.651-3.07-.651a7.483 7.483 0 0 0-7.488 7.488 7.483 7.483 0 0 0 7.488 7.488c3.86 0 7.07-2.976 7.442-6.744h13.628c.372 3.768 3.582 6.744 7.442 6.744a7.483 7.483 0 0 0 7.488-7.488 7.483 7.483 0 0 0-7.488-7.488zM15.953 7.628c0-3.302 2.698-6 6-6 3.303 0 6 2.698 6 6s-2.697 6-6 6c-3.302 0-6-2.698-6-6zm2.93 6.837a7.568 7.568 0 0 0 6.14 0L31.86 26.28a7.527 7.527 0 0 0-3.07 5.302H15.117a7.527 7.527 0 0 0-3.07-5.302l6.838-11.814zM7.675 38.325c-3.302 0-6-2.697-6-6 0-3.302 2.698-6 6-6 3.303 0 6 2.698 6 6-.046 3.35-2.697 6-6 6zm28.512 0c-3.302 0-6-2.697-6-6 0-3.302 2.698-6 6-6s6 2.698 6 6c0 3.35-2.698 6-6 6z"/>
            <circle cx="7.674" cy="32.372" r="4.651"/>
            <circle cx="36.186" cy="32.372" r="4.651"/>
        </g>
    </g>
</svg>
