<svg xmlns="http://www.w3.org/2000/svg" width="113" height="22" viewBox="0 0 113 22">
    <g fill="none" fill-rule="evenodd">
        <path fill="#FFF" d="M99.027 12.589h11.946V9.374H99.027v3.215zm-.69-7.388h13.326V2H98.337v3.2zM98 21h14v-3.214H98V21z"/>
        <path stroke="#FFF" d="M99.027 12.589h11.946V9.374H99.027v3.215zm-.69-7.388h13.326V2H98.337v3.2zM98 21h14v-3.214H98V21z"/>
        <path fill="#FFF" d="M7.531 2h3.942L18 21h-4.003L9.394 6.948 4.912 21H1L7.531 2"/>
        <path stroke="#FFF" d="M7.531 2h3.942L18 21h-4.003L9.394 6.948 4.912 21H1z"/>
        <path fill="#FFF" d="M27 20V2h13v3.07h-9.281V20H27"/>
        <path stroke="#FFF" d="M27 20V2h13v3.07h-9.281V20z"/>
        <path fill="#FFF" d="M74.86 10.487c0 2.114.494 3.7 1.483 4.757.99 1.057 2.216 1.585 3.68 1.585 1.474 0 2.695-.524 3.664-1.573.97-1.048 1.454-2.659 1.454-4.832 0-2.13-.472-3.705-1.415-4.724-.943-1.02-2.177-1.53-3.703-1.53-1.525 0-2.767.514-3.726 1.542-.958 1.028-1.438 2.62-1.438 4.775zm-3.86.126c0-2.19.399-3.993 1.196-5.409.798-1.416 1.84-2.471 3.127-3.164C76.609 1.347 78.168 1 80 1c2.655 0 4.819.823 6.491 2.469C88.163 5.115 89 7.459 89 10.499c0 3.076-.886 5.478-2.655 7.207C84.79 19.236 82.68 20 80.015 20c-2.686 0-4.806-.756-6.36-2.269C71.885 16.001 71 13.63 71 10.613z"/>
        <path stroke="#FFF" d="M74.86 10.487c0 2.114.494 3.7 1.483 4.757.99 1.057 2.216 1.585 3.68 1.585 1.474 0 2.695-.524 3.664-1.573.97-1.048 1.454-2.659 1.454-4.832 0-2.13-.472-3.705-1.415-4.724-.943-1.02-2.177-1.53-3.703-1.53-1.525 0-2.767.514-3.726 1.542-.958 1.028-1.438 2.62-1.438 4.775zm-3.86.126c0-2.19.399-3.993 1.196-5.409.798-1.416 1.84-2.471 3.127-3.164C76.609 1.347 78.168 1 80 1c2.655 0 4.819.823 6.491 2.469C88.163 5.115 89 7.459 89 10.499c0 3.076-.886 5.478-2.655 7.207C84.79 19.236 82.68 20 80.015 20c-2.686 0-4.806-.756-6.36-2.269C71.885 16.001 71 13.63 71 10.613z"/>
        <path fill="#FFF" d="M49 20V2h13v3.07h-9.281V20H49"/>
        <path stroke="#FFF" d="M49 20V2h13v3.07h-9.281V20z"/>
    </g>
</svg>
