<svg xmlns="http://www.w3.org/2000/svg" width="72" height="72" viewBox="0 0 72 72">
    <g fill="#2B2B2B" fill-rule="evenodd" transform="translate(1 1)">
        <circle cx="35" cy="35" r="35" stroke="#232323" stroke-width="2"/>
        <g fill="#FFFFFF">
            <path fill-rule="nonzero" d="M16.031 25h34.274c.28 0 .547.117.726.305.188.187.305.445.305.726v18.086c0 .281-.117.547-.305.727a1.028 1.028 0 0 1-.726.304H16.03c-.281 0-.547-.117-.726-.304a1.028 1.028 0 0 1-.305-.727V26.031c0-.281.117-.547.305-.726.187-.188.445-.305.726-.305zm34.055 1.25H16.25v17.648h33.836V26.25z"/>
            <path fill-rule="nonzero" d="M50.71 30.063h3.665c.344 0 .625.28.625.625v8.773a.627.627 0 0 1-.625.625h-3.664a.627.627 0 0 1-.625-.625v-8.773c0-.344.281-.625.625-.625zm3.04 1.25h-2.414v7.523h2.414v-7.523z"/>
            <path d="M21.398 38.852l11.415-8.477 1.203 4.102 10.507-3.36-11.586 8.649-1.304-4.305z"/>
        </g>
    </g>
</svg>
