<svg id="svg" version="1.1" width="72" height="72" viewBox="0 0 400 444.44444444444446" xmlns="http://www.w3.org/2000/svg" xmlns:xlink="http://www.w3.org/1999/xlink" ><g id="svgg"><path id="path0" d="M248.400 87.200 C 247.554 88.046,247.209 92.000,247.982 92.000 C 248.461 92.000,248.973 89.404,248.610 88.816 C 248.462 88.576,248.489 88.414,248.670 88.455 C 248.852 88.496,249.526 88.313,250.169 88.048 C 250.812 87.784,251.586 87.663,251.890 87.779 C 252.193 87.896,252.332 87.813,252.197 87.595 C 252.063 87.378,252.369 87.200,252.877 87.200 C 253.713 87.200,253.811 87.403,253.912 89.339 C 253.974 90.516,254.379 92.174,254.812 93.024 C 255.245 93.874,255.600 95.259,255.600 96.103 C 255.600 97.732,256.977 99.600,258.177 99.600 C 259.305 99.600,261.668 101.877,262.016 103.298 C 262.145 103.826,263.148 104.723,264.520 105.537 C 266.097 106.473,266.890 107.222,267.071 107.947 C 267.374 109.169,267.921 109.663,270.426 110.979 C 275.829 113.818,273.856 124.000,267.902 124.000 C 267.255 124.000,266.286 124.538,265.359 125.413 C 264.009 126.686,263.673 126.812,261.956 126.693 C 260.909 126.620,260.141 126.704,260.249 126.880 C 260.358 127.056,260.251 127.200,260.011 127.200 C 259.771 127.200,259.471 126.930,259.345 126.600 C 258.717 124.963,253.990 127.272,254.022 129.200 C 254.028 129.540,254.273 129.357,254.588 128.778 C 256.251 125.720,259.299 125.799,259.121 128.896 L 259.000 131.000 256.100 130.945 C 253.860 130.903,253.200 131.018,253.200 131.449 C 253.200 131.755,252.487 132.292,251.615 132.641 C 250.447 133.108,249.842 133.683,249.315 134.827 C 248.922 135.681,248.375 136.384,248.100 136.390 C 247.638 136.399,247.395 137.250,247.584 138.195 C 248.309 141.817,247.264 142.994,244.200 142.003 C 242.297 141.388,241.958 141.857,242.083 144.933 L 242.200 147.800 239.274 147.676 L 236.349 147.552 236.474 150.476 L 236.600 153.400 233.700 153.278 C 231.030 153.165,230.800 153.218,230.800 153.952 C 230.800 154.462,230.238 155.065,229.240 155.626 C 228.157 156.234,227.609 156.854,227.450 157.651 C 227.270 158.552,227.002 158.800,226.210 158.800 C 225.464 158.800,225.200 159.011,225.200 159.606 C 225.200 160.127,224.726 160.639,223.865 161.050 C 222.991 161.466,222.360 162.156,222.039 163.043 C 221.664 164.080,221.318 164.400,220.574 164.400 C 219.642 164.400,219.600 164.512,219.600 167.000 C 219.600 169.884,219.800 169.726,216.300 169.606 L 214.400 169.541 214.400 173.394 C 214.400 175.861,214.544 177.158,214.800 177.000 C 215.020 176.864,215.200 176.923,215.200 177.132 C 215.200 177.529,217.751 178.212,218.819 178.102 C 219.648 178.016,220.742 180.220,220.855 182.200 C 220.998 184.726,221.389 185.200,223.334 185.200 C 225.468 185.200,226.000 185.723,226.000 187.818 C 226.000 189.914,226.907 190.800,229.051 190.800 C 231.067 190.800,231.600 191.348,231.600 193.418 C 231.600 195.525,232.505 196.400,234.683 196.400 C 236.623 196.400,237.051 196.848,237.310 199.147 C 237.541 201.206,237.805 201.420,240.279 201.548 C 242.822 201.679,244.400 202.651,244.400 204.086 C 244.400 205.564,244.439 205.675,245.264 206.561 C 245.653 206.979,245.884 207.465,245.775 207.640 C 245.484 208.112,247.887 208.468,250.400 208.325 L 252.600 208.200 252.671 206.200 C 252.710 205.100,252.755 203.885,252.771 203.500 C 252.796 202.907,253.203 202.800,255.437 202.800 C 257.609 202.800,258.109 202.676,258.268 202.100 C 258.375 201.715,259.163 200.910,260.021 200.311 C 260.878 199.712,261.693 198.767,261.833 198.211 C 262.016 197.482,262.354 197.200,263.043 197.200 C 263.717 197.200,264.000 196.975,264.000 196.440 C 264.000 195.992,264.585 195.334,265.420 194.841 C 266.230 194.363,267.021 193.487,267.259 192.802 C 267.573 191.902,267.927 191.600,268.671 191.600 C 269.648 191.600,269.661 191.556,269.531 188.700 L 269.400 185.800 272.266 185.866 L 275.133 185.932 275.066 183.066 L 275.000 180.200 277.670 180.266 C 279.650 180.315,280.397 180.186,280.558 179.766 C 280.677 179.455,281.047 179.200,281.380 179.200 C 282.132 179.200,284.798 176.659,284.807 175.933 C 284.815 175.339,286.508 173.600,287.078 173.600 C 287.735 173.600,290.400 170.909,290.400 170.246 C 290.400 169.891,290.668 169.600,290.996 169.600 C 291.468 169.600,291.544 169.245,291.358 167.900 C 290.903 164.605,290.954 164.247,291.954 163.748 C 292.479 163.486,293.430 163.338,294.067 163.419 C 294.852 163.518,295.136 163.420,294.947 163.115 C 294.773 162.833,294.886 162.747,295.246 162.886 C 295.713 163.065,295.814 162.649,295.776 160.718 C 295.727 158.296,295.930 157.854,297.648 156.651 C 298.215 156.254,298.550 155.400,298.767 153.801 C 299.021 151.933,299.323 151.288,300.426 150.259 C 303.439 147.447,311.968 149.485,311.994 153.023 C 311.998 153.588,312.762 154.340,314.429 155.419 C 316.170 156.545,316.920 157.298,317.075 158.075 C 317.328 159.339,317.997 159.997,320.200 161.150 C 321.389 161.772,322.108 162.578,323.000 164.293 L 324.200 166.600 326.400 166.854 C 328.748 167.126,330.054 167.526,330.436 168.090 C 330.565 168.282,331.330 168.475,332.136 168.520 C 332.941 168.564,333.600 168.719,333.600 168.865 C 333.600 169.010,334.050 169.080,334.600 169.020 C 335.358 168.937,335.600 169.096,335.600 169.679 C 335.600 170.101,335.446 170.352,335.258 170.236 C 335.070 170.119,334.995 170.440,335.092 170.948 C 335.311 172.091,333.068 174.163,331.934 173.867 C 331.530 173.761,331.291 173.824,331.404 174.007 C 331.517 174.190,331.293 174.414,330.905 174.505 C 330.517 174.596,331.394 174.693,332.853 174.720 L 335.506 174.770 335.753 173.535 C 336.062 171.990,336.083 91.784,335.775 92.092 C 335.651 92.216,335.511 93.322,335.464 94.549 C 335.417 95.785,335.140 97.009,334.844 97.291 C 334.403 97.711,334.350 97.625,334.540 96.800 C 334.762 95.836,334.754 95.838,334.320 96.864 C 333.569 98.643,330.400 98.697,330.400 96.931 C 330.400 94.769,329.301 93.364,326.999 92.582 L 324.832 91.845 324.867 90.123 C 324.886 89.175,325.069 88.400,325.274 88.400 C 325.479 88.400,325.542 88.229,325.412 88.020 C 325.283 87.811,325.858 87.524,326.689 87.381 C 327.520 87.238,328.740 86.975,329.400 86.797 C 330.060 86.618,312.285 86.456,289.900 86.436 C 249.709 86.400,249.190 86.410,248.400 87.200 M333.800 87.662 C 334.240 87.903,334.825 88.381,335.100 88.726 C 335.375 89.071,335.600 89.149,335.600 88.899 C 335.600 88.391,334.046 87.193,333.411 87.212 C 333.185 87.219,333.360 87.421,333.800 87.662 M260.089 120.623 C 259.600 120.965,259.200 121.450,259.200 121.699 C 259.200 121.949,259.425 121.855,259.700 121.492 C 259.975 121.128,260.650 120.655,261.200 120.441 C 261.750 120.226,261.925 120.039,261.589 120.025 C 261.253 120.011,260.578 120.280,260.089 120.623 M253.236 133.200 C 253.256 133.420,253.273 134.140,253.273 134.800 C 253.273 135.460,253.256 136.171,253.236 136.381 C 253.216 136.590,252.525 136.691,251.700 136.604 C 250.875 136.517,249.975 136.436,249.700 136.423 C 248.930 136.388,249.092 135.913,250.429 134.291 C 251.575 132.901,253.153 132.288,253.236 133.200 M244.655 139.055 C 244.075 139.635,243.602 140.400,243.604 140.755 C 243.607 141.182,243.954 140.962,244.628 140.106 C 245.189 139.395,245.952 138.636,246.324 138.419 C 246.925 138.068,246.929 138.023,246.355 138.012 C 246.000 138.005,245.235 138.475,244.655 139.055 M230.800 157.200 L 230.800 158.800 229.173 158.800 L 227.546 158.800 228.400 157.600 C 228.870 156.940,229.512 156.400,229.827 156.400 C 230.142 156.400,230.400 156.220,230.400 156.000 C 230.400 155.780,230.490 155.600,230.600 155.600 C 230.710 155.600,230.800 156.320,230.800 157.200 M225.200 163.000 C 225.200 164.333,225.133 164.400,223.800 164.400 C 222.181 164.400,222.086 164.108,223.229 162.654 C 224.413 161.149,225.200 161.287,225.200 163.000 M295.600 166.247 C 295.600 166.663,293.476 168.045,292.200 168.460 C 291.503 168.687,291.493 168.725,292.120 168.760 C 293.550 168.839,296.495 166.762,295.857 166.124 C 295.716 165.982,295.600 166.038,295.600 166.247 M289.510 169.574 C 290.395 169.619,288.922 171.917,287.556 172.623 C 286.076 173.388,285.944 173.288,285.838 171.327 C 285.741 169.547,286.033 169.255,287.743 169.424 C 288.434 169.493,289.230 169.560,289.510 169.574 M284.400 175.020 C 284.400 175.818,282.995 177.685,282.013 178.193 C 280.391 179.032,280.400 179.040,280.400 176.800 L 280.400 174.800 282.400 174.800 C 283.500 174.800,284.400 174.899,284.400 175.020 M216.422 187.154 C 216.935 188.066,217.947 189.161,218.671 189.589 C 219.625 190.152,219.916 190.554,219.727 191.047 C 219.516 191.595,219.637 191.684,220.342 191.499 C 221.059 191.312,221.365 191.555,222.014 192.827 C 222.450 193.683,223.346 194.662,224.004 195.002 C 224.753 195.390,225.200 195.933,225.200 196.457 C 225.200 197.101,225.387 197.244,226.013 197.081 C 226.648 196.915,226.976 197.184,227.513 198.315 C 228.326 200.027,230.607 201.553,231.307 200.853 C 231.644 200.516,231.612 200.397,231.180 200.390 C 230.400 200.376,226.738 196.604,227.108 196.195 C 227.268 196.017,227.175 196.001,226.900 196.159 C 226.625 196.318,226.400 196.246,226.400 196.000 C 226.400 195.754,226.189 195.683,225.932 195.842 C 225.628 196.030,225.544 195.922,225.693 195.536 C 225.845 195.140,225.390 194.615,224.335 193.970 C 223.342 193.362,222.670 192.614,222.538 191.966 C 222.365 191.119,222.118 190.945,221.168 191.002 C 220.175 191.061,220.080 190.983,220.505 190.459 C 220.909 189.959,220.898 189.908,220.448 190.179 C 220.065 190.410,219.956 190.341,220.093 189.956 C 220.210 189.626,219.726 189.050,218.901 188.539 C 218.137 188.065,217.307 187.269,217.056 186.770 C 216.805 186.271,216.350 185.781,216.045 185.680 C 215.672 185.557,215.795 186.038,216.422 187.154 M266.707 192.400 C 266.432 192.840,266.105 193.200,265.979 193.200 C 265.854 193.200,265.357 193.567,264.875 194.016 L 264.000 194.831 264.000 193.216 L 264.000 191.600 265.603 191.600 C 267.107 191.600,267.176 191.650,266.707 192.400 M261.600 197.319 C 261.600 197.384,260.880 198.141,260.000 199.000 L 258.400 200.562 258.400 198.881 L 258.400 197.200 260.000 197.200 C 260.880 197.200,261.600 197.253,261.600 197.319 M230.955 201.772 C 230.606 202.682,231.093 203.059,231.937 202.532 C 232.516 202.171,232.648 202.239,232.700 202.927 C 232.795 204.190,234.103 205.703,235.631 206.315 L 237.000 206.864 235.156 204.932 C 234.142 203.869,233.193 202.659,233.047 202.243 C 232.901 201.826,232.667 201.600,232.527 201.739 C 232.388 201.879,232.034 201.794,231.742 201.551 C 231.340 201.218,231.147 201.272,230.955 201.772 M236.400 207.800 C 236.400 208.167,236.594 208.402,236.830 208.323 C 237.067 208.245,237.260 208.009,237.260 207.800 C 237.260 207.591,237.067 207.356,236.830 207.277 C 236.594 207.198,236.400 207.433,236.400 207.800 M148.080 236.880 C 147.816 237.144,147.600 238.396,147.600 239.662 L 147.600 241.963 144.900 242.082 C 142.360 242.193,142.192 242.259,142.066 243.200 C 141.884 244.559,138.853 247.582,137.663 247.592 C 137.119 247.597,136.640 247.894,136.522 248.300 C 136.411 248.685,135.572 249.547,134.660 250.215 C 133.747 250.883,132.942 251.828,132.872 252.315 C 132.779 252.957,132.471 253.200,131.748 253.200 C 130.766 253.200,130.753 253.243,130.875 256.100 L 131.000 259.000 128.118 258.933 L 125.236 258.865 125.365 261.633 L 125.495 264.400 122.592 264.400 L 119.690 264.400 119.745 267.100 L 119.800 269.800 117.100 269.693 C 114.447 269.589,114.400 269.604,114.400 270.603 C 114.400 271.403,114.155 271.669,113.251 271.850 C 112.454 272.009,111.834 272.557,111.226 273.640 C 110.678 274.614,110.058 275.200,109.574 275.200 C 109.013 275.200,108.800 275.478,108.800 276.210 C 108.800 276.998,108.552 277.270,107.672 277.446 C 106.929 277.594,106.221 278.195,105.594 279.209 C 105.071 280.055,104.319 280.833,103.922 280.936 C 103.318 281.094,103.200 281.557,103.200 283.763 C 103.200 286.726,103.581 286.468,99.200 286.474 C 97.352 286.476,97.144 286.545,97.900 286.900 C 98.877 287.358,98.859 287.305,98.946 290.142 C 99.010 292.268,99.372 291.902,94.648 294.481 C 92.169 295.833,89.375 294.648,88.348 291.808 C 88.032 290.932,87.394 290.201,86.623 289.830 C 84.803 288.955,82.800 286.958,82.800 286.019 C 82.800 285.495,82.197 284.791,81.154 284.096 C 78.592 282.391,77.600 281.321,77.600 280.262 C 77.600 278.031,74.493 276.874,67.900 276.651 C 67.075 276.623,66.400 276.465,66.400 276.300 C 66.400 276.135,65.950 276.000,65.400 276.000 L 64.400 276.000 64.450 313.700 C 64.478 334.435,64.625 350.631,64.778 349.692 C 64.931 348.753,65.289 347.763,65.573 347.492 C 65.991 347.094,66.046 347.192,65.860 348.000 C 65.653 348.900,65.677 348.889,66.095 347.893 C 66.350 347.284,66.748 346.855,66.980 346.939 C 67.211 347.023,67.680 346.949,68.022 346.774 C 68.912 346.318,69.357 346.763,69.996 348.747 C 70.589 350.587,72.341 352.094,74.500 352.619 C 75.536 352.871,75.812 353.265,75.607 354.200 C 75.559 354.420,75.482 355.090,75.437 355.689 C 75.329 357.134,75.341 357.126,72.162 357.758 C 69.743 358.239,74.467 358.312,110.224 358.353 C 156.303 358.406,152.409 358.708,152.712 355.060 C 152.930 352.431,152.268 351.970,151.621 354.300 C 151.088 356.218,151.095 356.512,151.662 356.162 C 151.941 355.989,152.015 356.052,151.849 356.321 C 151.698 356.565,151.311 356.664,150.989 356.541 C 150.668 356.417,150.521 356.127,150.664 355.896 C 150.817 355.649,150.731 355.595,150.455 355.766 C 150.198 355.925,150.083 356.210,150.199 356.399 C 150.483 356.857,148.933 357.329,148.342 356.964 C 148.052 356.785,147.984 356.851,148.162 357.138 C 148.348 357.440,148.105 357.600,147.461 357.600 C 146.672 357.600,146.517 357.440,146.684 356.800 C 146.799 356.360,146.708 356.000,146.482 356.000 C 146.256 356.000,146.117 355.573,146.175 355.050 C 146.232 354.528,145.949 353.043,145.545 351.750 C 145.142 350.458,144.809 348.897,144.806 348.282 C 144.799 347.003,143.216 345.200,142.099 345.200 C 141.236 345.200,138.747 342.671,138.099 341.135 C 137.851 340.549,137.259 339.946,136.782 339.794 C 135.193 339.290,132.800 337.002,132.800 335.987 C 132.800 335.614,132.060 334.943,131.100 334.446 C 127.767 332.722,127.622 332.511,127.202 328.793 C 126.620 323.630,128.221 320.800,131.724 320.800 C 132.983 320.800,135.253 319.527,135.582 318.637 C 135.820 317.994,136.252 317.792,137.446 317.766 C 140.196 317.705,140.666 317.609,140.722 317.100 C 140.911 315.377,141.186 314.299,141.546 313.865 C 142.002 313.315,145.815 313.263,146.302 313.799 C 146.466 313.980,146.347 313.982,146.038 313.802 C 145.669 313.588,145.570 313.628,145.751 313.921 C 146.104 314.493,147.200 314.081,147.200 313.376 C 147.200 313.080,147.875 312.522,148.700 312.136 C 150.415 311.333,151.169 310.522,151.187 309.463 C 151.194 309.057,151.560 308.631,152.000 308.516 C 152.440 308.401,152.800 308.043,152.800 307.721 C 152.800 307.399,153.500 306.861,154.356 306.524 C 155.553 306.054,156.054 305.553,156.524 304.356 C 156.861 303.499,157.409 302.800,157.743 302.800 C 158.238 302.800,158.337 302.260,158.275 299.900 L 158.200 297.000 161.100 297.122 C 163.754 297.234,164.000 297.178,164.000 296.462 C 164.000 295.989,164.562 295.347,165.420 294.841 C 166.230 294.363,167.021 293.487,167.259 292.802 C 167.568 291.916,167.931 291.600,168.639 291.600 C 169.329 291.600,169.600 291.377,169.600 290.810 C 169.600 290.335,170.084 289.770,170.815 289.392 C 171.483 289.047,172.327 288.142,172.689 287.382 C 173.160 286.394,173.612 286.000,174.274 286.000 C 174.929 286.000,175.200 285.769,175.200 285.210 C 175.200 284.735,175.684 284.170,176.415 283.792 C 177.083 283.447,177.927 282.542,178.289 281.782 C 178.683 280.956,179.240 280.400,179.674 280.400 C 180.306 280.400,180.400 280.038,180.400 277.600 L 180.400 274.800 183.184 274.800 L 185.968 274.800 185.962 271.288 C 185.955 266.930,185.876 266.807,182.968 266.624 C 181.053 266.503,180.573 266.333,180.461 265.737 C 180.385 265.332,180.160 264.829,179.961 264.620 C 179.763 264.411,179.597 263.511,179.594 262.620 C 179.585 260.305,178.505 259.200,176.250 259.200 C 175.132 259.200,174.679 258.683,174.499 257.200 C 174.151 254.335,173.619 253.898,170.000 253.508 C 169.129 253.414,168.972 253.161,168.787 251.545 C 168.501 249.061,167.880 248.400,165.831 248.400 C 163.846 248.400,163.202 247.868,163.194 246.220 C 163.185 244.245,162.364 243.037,160.996 242.985 C 158.400 242.886,156.382 242.314,155.981 241.564 C 155.756 241.144,155.733 240.800,155.931 240.800 C 156.128 240.800,156.236 240.307,156.170 239.704 C 156.103 239.093,156.348 238.266,156.725 237.835 C 157.237 237.249,157.255 237.143,156.800 237.395 C 156.443 237.593,156.335 237.581,156.534 237.364 C 157.103 236.743,161.337 236.929,161.930 237.600 C 162.241 237.953,162.347 237.982,162.188 237.670 C 161.964 237.235,162.062 237.232,162.740 237.655 C 163.675 238.239,164.214 237.933,163.862 237.017 C 163.553 236.211,148.876 236.084,148.080 236.880 M168.161 242.681 C 168.764 242.997,169.105 243.429,168.950 243.681 C 168.787 243.944,168.859 244.011,169.126 243.845 C 169.924 243.352,172.008 244.788,172.715 246.318 C 173.487 247.989,174.400 249.119,174.400 248.405 C 174.400 248.156,174.580 248.064,174.800 248.200 C 175.020 248.336,175.200 248.237,175.200 247.981 C 175.200 247.724,174.944 247.613,174.631 247.733 C 174.266 247.873,173.927 247.566,173.686 246.876 C 173.152 245.347,171.029 243.200,170.052 243.200 C 169.498 243.200,169.298 243.011,169.445 242.626 C 169.610 242.197,169.342 242.061,168.382 242.088 L 167.099 242.125 168.161 242.681 M136.267 253.067 C 136.164 253.169,135.393 253.196,134.553 253.127 L 133.025 253.000 134.613 251.458 L 136.200 249.916 136.327 251.398 C 136.396 252.213,136.369 252.964,136.267 253.067 M184.200 259.297 C 185.569 260.105,186.923 259.818,185.600 259.000 C 185.380 258.864,185.200 258.979,185.200 259.256 C 185.200 259.648,185.093 259.653,184.720 259.280 C 184.456 259.016,184.051 258.805,183.820 258.812 C 183.589 258.819,183.760 259.037,184.200 259.297 M64.900 269.865 C 64.350 270.087,64.175 274.400,64.716 274.400 C 64.889 274.400,65.024 273.905,65.016 273.300 C 65.005 272.525,65.177 272.239,65.600 272.333 C 65.930 272.407,66.067 272.333,65.903 272.170 C 65.740 272.007,65.807 271.632,66.052 271.337 C 66.597 270.681,67.360 270.618,66.962 271.262 C 66.784 271.550,66.852 271.615,67.145 271.434 C 67.402 271.275,67.492 270.949,67.344 270.709 C 67.168 270.425,67.374 270.352,67.937 270.500 C 68.519 270.652,68.800 270.542,68.800 270.163 C 68.800 269.603,66.066 269.395,64.900 269.865 M70.105 269.887 C 70.714 269.979,71.614 269.977,72.105 269.882 C 72.597 269.787,72.100 269.711,71.000 269.714 C 69.900 269.717,69.497 269.795,70.105 269.887 M114.400 273.600 L 114.400 275.200 112.700 275.168 C 111.765 275.151,111.225 275.046,111.500 274.935 C 111.775 274.824,112.000 274.493,112.000 274.200 C 112.000 273.786,113.797 272.076,114.300 272.013 C 114.355 272.006,114.400 272.720,114.400 273.600 M108.667 280.667 C 108.564 280.769,107.791 280.796,106.949 280.727 L 105.418 280.600 107.009 279.009 L 108.600 277.418 108.727 278.949 C 108.796 279.791,108.769 280.564,108.667 280.667 M177.725 281.100 C 176.958 283.251,175.200 283.713,175.200 281.763 C 175.200 280.474,175.276 280.400,176.587 280.400 C 177.737 280.400,177.932 280.520,177.725 281.100 M172.400 286.167 C 172.400 286.876,171.721 287.724,170.752 288.225 L 169.600 288.821 169.600 287.410 C 169.600 286.065,169.665 286.000,171.000 286.000 C 171.770 286.000,172.400 286.075,172.400 286.167 M166.707 292.400 C 166.432 292.840,166.105 293.200,165.979 293.200 C 165.854 293.200,165.357 293.567,164.875 294.016 L 164.000 294.831 164.000 293.216 L 164.000 291.600 165.603 291.600 C 167.107 291.600,167.176 291.650,166.707 292.400 M156.304 302.971 C 156.744 303.411,155.476 305.326,154.313 305.980 C 153.726 306.309,153.127 306.461,152.983 306.316 C 152.690 306.023,152.451 303.161,152.683 302.713 C 152.863 302.365,155.917 302.583,156.304 302.971 M151.054 308.520 C 151.399 308.865,149.446 311.278,148.544 311.621 C 147.112 312.166,146.905 311.702,147.161 308.513 C 147.195 308.090,150.630 308.097,151.054 308.520 M64.800 355.977 C 64.800 356.512,67.177 358.002,68.000 357.983 C 68.330 357.975,68.052 357.730,67.383 357.438 C 66.713 357.147,65.858 356.601,65.483 356.225 C 65.107 355.850,64.800 355.738,64.800 355.977 " stroke="none" fill="#000000" fill-rule="evenodd"></path><path id="path1" d="M328.600 86.986 C 328.380 87.068,327.520 87.248,326.689 87.387 C 325.858 87.527,325.283 87.811,325.412 88.020 C 325.542 88.229,325.479 88.400,325.274 88.400 C 325.069 88.400,324.886 89.175,324.867 90.123 L 324.832 91.845 326.999 92.582 C 329.301 93.364,330.400 94.769,330.400 96.931 C 330.400 98.697,333.569 98.643,334.320 96.864 C 334.754 95.838,334.762 95.836,334.540 96.800 C 334.351 97.624,334.404 97.711,334.843 97.292 C 336.293 95.910,335.377 88.618,333.686 88.086 C 333.404 87.997,333.635 88.606,334.201 89.439 C 335.253 90.990,335.375 92.161,334.495 92.250 C 334.223 92.278,333.955 92.338,333.900 92.384 C 333.845 92.430,333.047 92.543,332.128 92.636 C 330.244 92.825,329.967 92.449,330.185 90.000 C 330.253 89.230,330.330 88.353,330.355 88.050 C 330.388 87.650,330.756 87.566,331.700 87.743 C 332.546 87.901,332.790 87.862,332.400 87.630 C 331.683 87.203,329.164 86.777,328.600 86.986 M252.197 87.595 C 252.332 87.813,252.193 87.896,251.890 87.779 C 251.586 87.663,250.812 87.784,250.169 88.048 C 249.526 88.313,248.910 88.516,248.800 88.499 C 248.690 88.483,248.591 89.186,248.580 90.062 C 248.568 90.938,248.376 91.777,248.151 91.927 C 247.927 92.077,247.702 93.634,247.651 95.387 C 247.601 97.140,247.658 98.475,247.780 98.354 C 247.901 98.232,248.030 97.375,248.067 96.449 C 248.103 95.523,248.311 94.655,248.528 94.521 C 248.749 94.384,248.798 94.480,248.638 94.738 C 248.481 94.992,248.543 95.200,248.776 95.200 C 249.009 95.200,249.200 95.048,249.200 94.861 C 249.200 94.525,252.747 94.613,253.091 94.958 C 253.190 95.057,253.370 96.576,253.490 98.334 C 253.766 102.352,253.861 102.489,256.512 102.709 L 258.697 102.891 258.913 105.277 C 259.177 108.188,259.010 108.022,261.968 108.291 L 264.400 108.511 264.400 110.868 C 264.400 113.518,264.426 113.542,267.680 113.944 L 269.753 114.200 270.471 116.600 C 271.355 119.554,271.361 119.276,270.384 120.325 C 269.797 120.955,269.097 121.202,267.884 121.205 C 264.803 121.215,264.400 121.475,264.400 123.447 L 264.400 125.200 261.600 125.200 C 260.060 125.200,258.800 125.302,258.800 125.426 C 258.800 125.963,259.663 127.200,260.038 127.200 C 260.263 127.200,260.358 127.056,260.249 126.880 C 260.141 126.704,260.909 126.620,261.956 126.693 C 263.673 126.812,264.009 126.686,265.359 125.413 C 266.286 124.538,267.255 124.000,267.902 124.000 C 273.856 124.000,275.829 113.818,270.426 110.979 C 267.921 109.663,267.374 109.169,267.071 107.947 C 266.890 107.222,266.097 106.473,264.520 105.537 C 263.148 104.723,262.145 103.826,262.016 103.298 C 261.668 101.877,259.305 99.600,258.177 99.600 C 256.977 99.600,255.600 97.732,255.600 96.103 C 255.600 95.259,255.245 93.874,254.812 93.024 C 254.379 92.174,253.974 90.516,253.912 89.339 C 253.811 87.403,253.713 87.200,252.877 87.200 C 252.369 87.200,252.063 87.378,252.197 87.595 M248.000 101.776 C 248.000 102.307,249.132 102.753,249.309 102.292 C 249.430 101.978,249.206 101.741,248.756 101.707 C 248.340 101.675,248.000 101.706,248.000 101.776 M253.324 106.456 C 253.364 107.434,254.800 108.940,254.800 108.003 C 254.800 107.782,254.655 107.600,254.477 107.600 C 254.300 107.600,253.958 107.105,253.718 106.500 L 253.281 105.400 253.324 106.456 M259.047 113.379 C 259.150 113.647,259.497 113.867,259.817 113.867 C 260.662 113.867,260.532 113.328,259.630 113.092 C 259.131 112.962,258.926 113.063,259.047 113.379 M260.431 121.436 C 259.725 122.030,259.211 122.840,259.225 123.336 C 259.250 124.182,259.259 124.180,259.622 123.274 C 259.845 122.717,260.179 122.463,260.458 122.636 C 260.746 122.814,260.816 122.749,260.642 122.468 C 260.475 122.198,260.898 121.685,261.680 121.208 C 262.492 120.713,262.742 120.402,262.331 120.401 C 261.963 120.401,261.108 120.866,260.431 121.436 M256.983 127.545 C 253.858 129.451,253.890 131.325,257.044 131.124 L 259.000 131.000 259.121 128.900 C 259.257 126.533,258.956 126.342,256.983 127.545 M258.800 129.200 L 258.800 130.800 257.000 130.800 C 254.893 130.800,254.879 130.767,256.247 128.973 C 257.731 127.028,258.800 127.123,258.800 129.200 M251.428 134.652 C 249.534 136.603,250.044 137.205,252.011 135.341 C 252.866 134.531,253.473 133.718,253.359 133.534 C 253.047 133.029,252.949 133.086,251.428 134.652 M245.847 140.287 C 244.809 141.355,244.533 141.884,244.854 142.184 C 245.166 142.475,245.357 142.444,245.489 142.084 C 245.592 141.801,246.222 141.060,246.887 140.438 C 247.575 139.795,247.922 139.199,247.691 139.056 C 247.468 138.919,246.638 139.472,245.847 140.287 M247.600 141.304 C 247.600 141.655,247.285 142.024,246.900 142.124 C 246.244 142.296,246.245 142.310,246.913 142.354 C 247.636 142.401,248.306 141.373,247.849 140.916 C 247.712 140.779,247.600 140.953,247.600 141.304 M302.011 149.102 C 300.311 149.749,299.074 151.541,298.767 153.801 C 298.550 155.400,298.215 156.254,297.648 156.651 C 295.930 157.854,295.727 158.296,295.776 160.718 C 295.814 162.649,295.713 163.065,295.246 162.886 C 294.929 162.764,294.776 162.838,294.908 163.050 C 295.045 163.273,294.491 163.441,293.602 163.446 C 291.185 163.460,289.957 166.115,291.604 167.764 C 292.166 168.327,295.002 166.244,295.583 164.842 C 295.863 164.164,296.235 163.698,296.409 163.806 C 296.584 163.913,297.148 163.833,297.663 163.626 C 298.266 163.385,298.369 163.242,297.953 163.225 C 297.506 163.208,297.239 162.703,297.091 161.598 C 296.737 158.959,297.027 158.499,299.238 158.195 L 301.200 157.925 301.200 155.172 C 301.200 151.149,302.345 150.578,307.120 152.216 C 308.563 152.711,308.607 152.786,308.881 155.209 C 309.240 158.385,309.110 158.282,312.900 158.367 L 314.400 158.400 314.400 160.776 C 314.400 163.501,314.478 163.583,317.360 163.881 L 319.499 164.101 319.727 166.313 C 320.003 168.993,320.064 169.035,324.066 169.310 C 327.901 169.572,327.702 169.406,327.756 172.389 C 327.798 174.683,327.848 174.799,328.800 174.794 C 330.244 174.787,331.623 174.361,331.395 173.992 C 331.287 173.817,331.530 173.761,331.934 173.867 C 333.068 174.163,335.311 172.091,335.092 170.948 C 334.995 170.440,335.070 170.119,335.258 170.236 C 335.446 170.352,335.600 170.101,335.600 169.679 C 335.600 169.096,335.358 168.937,334.600 169.020 C 334.050 169.080,333.600 169.010,333.600 168.865 C 333.600 168.719,332.941 168.564,332.136 168.520 C 331.330 168.475,330.565 168.282,330.436 168.090 C 330.054 167.526,328.748 167.126,326.400 166.854 L 324.200 166.600 323.000 164.293 C 322.108 162.578,321.389 161.772,320.200 161.150 C 317.997 159.997,317.328 159.339,317.075 158.075 C 316.920 157.298,316.170 156.545,314.429 155.419 C 312.762 154.340,311.998 153.588,311.994 153.023 C 311.975 150.456,305.320 147.842,302.011 149.102 M229.670 157.665 C 228.746 158.792,228.745 158.800,229.582 158.800 C 230.459 158.800,230.964 158.049,230.734 157.088 C 230.643 156.707,230.304 156.890,229.670 157.665 M299.800 162.614 C 299.140 162.917,298.881 163.172,299.224 163.182 C 299.566 163.192,300.196 162.936,300.624 162.613 C 301.572 161.896,301.369 161.896,299.800 162.614 M224.000 163.400 L 223.061 164.400 224.130 164.400 C 225.005 164.400,225.200 164.217,225.200 163.400 C 225.200 162.850,225.141 162.400,225.070 162.400 C 224.998 162.400,224.517 162.850,224.000 163.400 M309.047 163.379 C 309.150 163.647,309.497 163.867,309.817 163.867 C 310.662 163.867,310.532 163.328,309.630 163.092 C 309.131 162.962,308.926 163.063,309.047 163.379 M294.821 164.700 C 293.223 167.446,291.600 167.913,291.600 165.627 L 291.600 164.000 293.414 164.000 C 295.030 164.000,295.184 164.076,294.821 164.700 M314.453 168.000 C 314.430 168.330,314.544 168.780,314.706 169.000 C 315.111 169.551,316.000 169.688,316.000 169.200 C 316.000 168.980,315.743 168.800,315.429 168.800 C 315.115 168.800,314.776 168.485,314.676 168.100 C 314.546 167.604,314.481 167.575,314.453 168.000 M286.993 170.807 C 285.521 172.315,285.518 172.713,286.982 172.152 C 287.622 171.906,289.005 169.671,288.704 169.370 C 288.618 169.285,287.848 169.931,286.993 170.807 M320.000 173.192 C 319.475 173.523,319.488 173.659,320.100 174.271 C 320.531 174.703,320.800 174.785,320.800 174.486 C 320.800 174.219,320.598 174.000,320.351 174.000 C 320.041 174.000,320.056 173.815,320.400 173.400 C 320.972 172.711,320.855 172.651,320.000 173.192 M281.606 176.194 C 280.148 177.698,280.105 178.094,281.456 177.582 C 282.269 177.275,283.862 174.800,283.248 174.800 C 283.088 174.800,282.349 175.427,281.606 176.194 M214.673 177.061 C 214.222 177.512,214.346 185.680,214.800 185.400 C 215.020 185.264,215.200 185.298,215.200 185.476 C 215.200 185.654,215.667 185.827,216.237 185.860 C 217.348 185.924,219.600 187.809,219.600 188.675 C 219.600 188.964,219.786 189.200,220.014 189.200 C 220.294 189.200,220.299 189.441,220.028 189.947 C 219.553 190.836,219.837 191.238,220.705 190.904 C 221.146 190.735,221.237 190.817,221.011 191.183 C 220.763 191.583,220.855 191.609,221.415 191.296 C 221.990 190.974,222.394 191.128,223.370 192.043 C 224.046 192.677,224.735 193.197,224.900 193.198 C 225.065 193.199,225.200 193.560,225.200 194.000 C 225.200 194.440,225.374 194.800,225.587 194.800 C 225.801 194.800,225.860 195.100,225.719 195.466 C 225.548 195.913,225.617 196.036,225.932 195.842 C 226.189 195.683,226.400 195.754,226.400 196.000 C 226.400 196.251,226.619 196.316,226.900 196.147 C 227.288 195.914,227.295 195.976,226.934 196.423 C 226.555 196.892,226.642 197.010,227.400 197.056 C 228.662 197.131,230.345 198.399,230.643 199.500 C 230.777 199.995,231.069 200.400,231.292 200.400 C 231.515 200.400,231.451 200.705,231.149 201.077 C 230.836 201.462,230.803 201.632,231.072 201.470 C 231.332 201.314,231.660 201.373,231.800 201.600 C 231.940 201.827,232.212 201.916,232.403 201.798 C 232.594 201.680,232.897 201.812,233.075 202.092 C 233.254 202.372,233.875 202.846,234.456 203.145 C 235.548 203.707,236.283 204.814,236.484 206.200 C 236.548 206.640,236.870 207.238,237.200 207.530 C 237.640 207.918,237.650 207.981,237.238 207.768 C 236.869 207.576,236.774 207.635,236.962 207.938 C 237.154 208.249,238.841 208.391,242.124 208.372 C 244.806 208.356,246.672 208.214,246.270 208.056 C 245.869 207.898,245.599 207.647,245.670 207.497 C 245.742 207.348,245.525 206.905,245.190 206.513 C 244.449 205.648,244.400 205.498,244.400 204.086 C 244.400 202.651,242.822 201.679,240.279 201.548 C 237.805 201.420,237.541 201.206,237.310 199.147 C 237.050 196.833,236.624 196.400,234.613 196.400 C 232.484 196.400,231.600 195.504,231.600 193.349 C 231.600 191.333,231.052 190.800,228.982 190.800 C 226.886 190.800,226.000 189.893,226.000 187.749 C 226.000 185.723,225.452 185.200,223.334 185.200 C 221.389 185.200,220.998 184.726,220.855 182.200 C 220.747 180.310,219.609 177.911,218.942 178.167 C 218.384 178.381,215.499 177.572,215.173 177.110 C 215.048 176.933,214.823 176.911,214.673 177.061 M264.150 192.187 C 263.691 193.381,264.245 193.617,265.178 192.624 L 266.139 191.600 265.257 191.600 C 264.772 191.600,264.274 191.864,264.150 192.187 M258.550 197.787 C 258.091 198.981,258.645 199.217,259.578 198.224 L 260.539 197.200 259.657 197.200 C 259.172 197.200,258.674 197.464,258.550 197.787 M156.534 237.307 C 156.371 237.571,156.482 237.603,156.838 237.393 C 157.193 237.185,157.151 237.348,156.725 237.835 C 156.348 238.266,156.103 239.093,156.170 239.704 C 156.236 240.307,156.128 240.800,155.931 240.800 C 155.733 240.800,155.756 241.144,155.981 241.564 C 156.382 242.314,158.400 242.886,160.996 242.985 C 162.364 243.037,163.185 244.245,163.194 246.220 C 163.202 247.868,163.846 248.400,165.831 248.400 C 167.880 248.400,168.501 249.061,168.787 251.545 C 168.972 253.161,169.129 253.414,170.000 253.508 C 173.619 253.898,174.151 254.335,174.499 257.200 C 174.679 258.683,175.132 259.200,176.250 259.200 C 178.505 259.200,179.585 260.305,179.594 262.620 C 179.597 263.511,179.763 264.411,179.961 264.620 C 180.160 264.829,180.385 265.332,180.461 265.737 C 180.573 266.333,181.053 266.503,182.968 266.624 C 184.290 266.707,185.491 267.000,185.687 267.287 C 185.894 267.591,185.983 266.170,185.905 263.800 C 185.818 261.165,185.618 259.800,185.320 259.800 C 185.071 259.800,184.717 259.636,184.533 259.436 C 184.340 259.224,184.410 259.192,184.700 259.359 C 184.975 259.518,185.200 259.495,185.200 259.310 C 185.200 259.124,184.176 258.929,182.924 258.877 C 180.195 258.762,180.532 259.127,180.264 256.000 C 180.141 254.570,180.031 253.394,180.020 253.386 C 180.009 253.378,178.976 253.329,177.724 253.277 C 174.980 253.162,175.268 253.453,175.155 250.672 C 175.068 248.511,174.779 247.893,173.800 247.771 C 173.580 247.744,173.187 247.694,172.927 247.661 C 172.667 247.627,172.352 247.279,172.227 246.887 C 172.103 246.494,171.461 245.854,170.801 245.464 C 170.140 245.074,169.600 244.484,169.600 244.154 C 169.600 243.779,169.411 243.666,169.100 243.853 C 168.701 244.093,168.700 244.029,169.097 243.540 C 169.689 242.808,169.370 242.360,168.495 242.696 C 168.151 242.828,167.971 242.770,168.097 242.567 C 168.222 242.364,167.400 242.142,166.270 242.073 C 163.806 241.924,164.070 242.162,163.922 239.951 C 163.826 238.517,163.607 238.034,162.900 237.700 C 162.232 237.385,162.059 237.395,162.229 237.737 C 162.356 237.992,162.221 237.930,161.930 237.600 C 161.308 236.896,156.935 236.658,156.534 237.307 M171.000 246.800 C 171.707 247.581,171.699 247.600,170.662 247.600 C 169.867 247.600,169.600 247.399,169.600 246.800 C 169.600 246.360,169.752 246.000,169.938 246.000 C 170.124 246.000,170.602 246.360,171.000 246.800 M135.056 252.246 C 134.314 253.265,134.314 253.267,135.256 253.134 C 135.878 253.046,136.244 252.693,136.328 252.100 C 136.496 250.918,135.980 250.978,135.056 252.246 M68.804 270.263 C 68.802 270.539,68.453 270.634,67.937 270.500 C 67.374 270.352,67.168 270.425,67.344 270.709 C 67.492 270.949,67.402 271.275,67.145 271.434 C 66.852 271.615,66.784 271.550,66.962 271.262 C 67.360 270.618,66.597 270.681,66.052 271.337 C 65.807 271.632,65.740 272.007,65.903 272.170 C 66.067 272.333,65.930 272.407,65.600 272.333 C 65.177 272.239,65.005 272.525,65.016 273.300 C 65.024 273.905,64.889 274.400,64.716 274.400 C 64.542 274.400,64.400 274.760,64.400 275.200 C 64.400 275.787,64.667 276.000,65.400 276.000 C 65.950 276.000,66.400 276.135,66.400 276.300 C 66.400 276.465,67.075 276.623,67.900 276.651 C 74.493 276.874,77.600 278.031,77.600 280.262 C 77.600 281.321,78.592 282.391,81.154 284.096 C 82.197 284.791,82.800 285.495,82.800 286.019 C 82.800 286.958,84.803 288.955,86.623 289.830 C 87.394 290.201,88.032 290.932,88.348 291.808 C 89.375 294.648,92.169 295.833,94.648 294.481 C 99.475 291.847,99.280 292.158,98.843 287.764 C 98.820 287.525,98.320 287.110,97.733 286.842 C 96.860 286.444,96.744 286.451,97.095 286.878 C 97.503 287.373,97.729 289.124,97.641 291.100 C 97.602 291.948,97.431 292.000,94.646 292.000 L 91.692 292.000 91.421 289.828 C 91.096 287.228,90.705 286.846,88.042 286.530 L 86.000 286.289 85.972 284.444 C 85.938 282.226,85.518 281.018,84.760 280.963 C 84.452 280.940,83.353 280.894,82.318 280.861 L 80.437 280.800 80.318 278.100 L 80.200 275.400 76.943 275.285 C 73.568 275.165,72.721 274.622,73.626 273.158 C 73.808 272.864,73.774 272.410,73.550 272.140 C 73.016 271.496,74.545 269.927,75.391 270.252 C 75.726 270.380,76.000 270.287,76.000 270.044 C 76.000 269.747,74.820 269.635,72.404 269.701 C 70.009 269.767,68.807 269.954,68.804 270.263 M76.400 270.000 C 76.400 270.360,76.707 270.466,77.455 270.366 C 77.596 270.347,77.863 270.572,78.049 270.866 C 78.292 271.249,78.389 271.146,78.394 270.500 C 78.399 269.805,78.172 269.600,77.400 269.600 C 76.850 269.600,76.400 269.780,76.400 270.000 M78.800 270.613 C 78.800 271.257,79.865 271.869,80.274 271.459 C 80.559 271.174,79.655 270.000,79.151 270.000 C 78.958 270.000,78.800 270.276,78.800 270.613 M113.078 274.230 L 111.955 275.200 112.990 275.200 C 113.559 275.200,114.126 274.936,114.250 274.613 C 114.697 273.448,114.178 273.278,113.078 274.230 M83.848 275.677 C 83.976 275.885,84.342 275.954,84.661 275.832 C 84.980 275.709,85.144 275.767,85.025 275.959 C 84.906 276.152,85.062 276.520,85.372 276.777 C 85.825 277.153,85.909 277.103,85.798 276.522 C 85.723 276.125,85.647 275.688,85.631 275.550 C 85.614 275.413,85.153 275.300,84.607 275.300 C 84.061 275.300,83.720 275.470,83.848 275.677 M107.400 279.831 L 106.200 280.796 107.313 280.798 C 107.924 280.799,108.526 280.536,108.650 280.213 C 109.098 279.045,108.575 278.885,107.400 279.831 M175.200 281.470 L 175.200 282.539 176.200 281.600 C 176.750 281.083,177.200 280.602,177.200 280.530 C 177.200 280.459,176.750 280.400,176.200 280.400 C 175.383 280.400,175.200 280.595,175.200 281.470 M169.600 287.070 L 169.600 288.139 170.600 287.200 C 171.150 286.683,171.600 286.202,171.600 286.130 C 171.600 286.059,171.150 286.000,170.600 286.000 C 169.783 286.000,169.600 286.195,169.600 287.070 M164.150 292.187 C 163.691 293.381,164.245 293.617,165.178 292.624 L 166.139 291.600 165.257 291.600 C 164.772 291.600,164.274 291.864,164.150 292.187 M153.707 303.974 C 152.996 304.803,152.535 305.602,152.682 305.749 C 153.034 306.101,156.028 303.169,155.760 302.735 C 155.418 302.181,155.061 302.396,153.707 303.974 M148.229 309.571 C 147.403 310.416,146.897 311.212,147.103 311.340 C 147.479 311.572,148.398 310.833,149.684 309.263 C 150.920 307.754,149.764 307.999,148.229 309.571 M141.546 313.865 C 141.186 314.299,140.911 315.377,140.722 317.100 C 140.666 317.609,140.196 317.705,137.446 317.766 C 136.252 317.792,135.820 317.994,135.582 318.637 C 135.253 319.527,132.983 320.800,131.724 320.800 C 128.221 320.800,126.620 323.630,127.202 328.793 C 127.622 332.511,127.767 332.722,131.100 334.446 C 132.060 334.943,132.800 335.614,132.800 335.987 C 132.800 337.002,135.193 339.290,136.782 339.794 C 137.259 339.946,137.851 340.549,138.099 341.135 C 138.747 342.671,141.236 345.200,142.099 345.200 C 143.216 345.200,144.799 347.003,144.806 348.282 C 144.809 348.897,145.142 350.458,145.545 351.750 C 145.949 353.043,146.232 354.528,146.175 355.050 C 146.117 355.573,146.256 356.000,146.482 356.000 C 146.708 356.000,146.799 356.360,146.684 356.800 C 146.517 357.440,146.672 357.600,147.461 357.600 C 148.105 357.600,148.348 357.440,148.162 357.138 C 147.984 356.851,148.052 356.785,148.342 356.964 C 148.933 357.329,150.483 356.857,150.199 356.399 C 150.083 356.210,150.198 355.925,150.455 355.766 C 150.731 355.595,150.817 355.649,150.664 355.896 C 150.521 356.127,150.668 356.417,150.989 356.541 C 151.311 356.664,151.698 356.565,151.849 356.321 C 152.015 356.052,151.941 355.989,151.662 356.162 C 151.095 356.512,151.088 356.218,151.621 354.300 C 151.850 353.475,152.192 352.800,152.380 352.800 C 152.569 352.800,152.730 351.900,152.739 350.800 C 152.747 349.700,152.590 348.800,152.390 348.800 C 152.189 348.800,152.140 349.100,152.281 349.466 C 152.452 349.913,152.383 350.036,152.068 349.842 C 151.811 349.683,151.600 349.698,151.600 349.876 C 151.599 350.054,150.654 350.200,149.500 350.200 L 147.400 350.200 147.130 348.600 C 146.981 347.720,146.843 346.100,146.824 345.000 C 146.804 343.900,146.656 342.820,146.494 342.600 C 146.177 342.168,146.075 342.150,143.450 342.060 L 141.699 342.000 141.515 339.786 C 141.287 337.031,140.969 336.713,138.214 336.485 C 136.293 336.325,135.996 336.189,135.971 335.450 C 135.820 331.094,135.882 331.186,132.896 330.915 L 130.528 330.701 129.807 327.919 C 128.893 324.393,129.336 323.762,132.953 323.439 C 135.730 323.190,135.464 323.381,135.773 321.417 C 135.910 320.546,136.228 319.707,136.479 319.551 C 137.123 319.153,140.515 319.539,140.828 320.046 C 140.986 320.302,141.192 320.198,141.351 319.783 C 141.496 319.407,141.386 318.817,141.107 318.473 C 140.711 317.983,140.709 317.912,141.100 318.147 C 141.375 318.312,141.600 318.284,141.600 318.085 C 141.600 317.885,142.005 317.514,142.500 317.259 L 143.400 316.796 142.500 317.025 C 141.677 317.234,141.600 317.115,141.600 315.627 L 141.600 314.000 143.414 314.000 C 145.210 314.000,145.494 314.877,143.998 315.801 C 143.779 315.937,143.600 316.239,143.600 316.473 C 143.600 317.198,144.672 316.074,145.203 314.792 C 145.489 314.103,145.882 313.718,146.146 313.869 C 146.396 314.012,146.466 313.980,146.302 313.799 C 145.815 313.263,142.002 313.315,141.546 313.865 M140.400 322.339 C 140.400 322.599,139.815 323.168,139.100 323.604 C 138.385 324.040,138.015 324.398,138.278 324.399 C 138.996 324.401,141.045 322.513,140.700 322.167 C 140.535 322.002,140.400 322.079,140.400 322.339 M140.000 331.197 C 140.000 331.418,140.180 331.600,140.400 331.600 C 140.620 331.600,140.800 331.859,140.800 332.176 C 140.800 332.493,140.969 332.857,141.176 332.985 C 141.382 333.113,141.526 332.874,141.494 332.454 C 141.434 331.661,140.000 330.454,140.000 331.197 M145.600 336.629 C 145.600 337.051,146.702 337.964,146.933 337.733 C 147.059 337.608,146.913 337.256,146.610 336.952 C 146.033 336.376,145.600 336.237,145.600 336.629 M151.498 342.981 C 151.605 343.536,151.849 343.893,152.041 343.775 C 152.233 343.656,152.284 343.838,152.153 344.179 C 152.022 344.521,152.114 344.800,152.357 344.800 C 153.068 344.800,152.867 343.385,152.053 342.648 C 151.340 342.003,151.314 342.018,151.498 342.981 M68.000 346.800 C 67.710 346.979,67.268 347.047,67.018 346.951 C 66.767 346.855,66.353 347.277,66.096 347.888 C 65.680 348.881,65.655 348.893,65.860 348.000 C 66.042 347.208,65.986 347.099,65.589 347.476 C 63.952 349.032,64.594 355.254,66.522 356.507 C 69.834 358.662,75.252 358.164,75.437 355.689 C 75.482 355.090,75.559 354.420,75.607 354.200 C 75.812 353.265,75.536 352.871,74.500 352.619 C 72.258 352.073,70.536 350.561,69.969 348.640 C 69.407 346.739,68.886 346.252,68.000 346.800 M69.968 352.562 C 70.477 353.175,70.254 356.306,69.659 356.901 C 68.968 357.592,66.561 356.272,65.789 354.779 C 65.144 353.531,65.258 352.141,65.970 352.581 C 66.176 352.709,66.447 352.648,66.571 352.447 C 66.903 351.910,69.501 351.999,69.968 352.562 " stroke="none" fill="#555555" fill-rule="evenodd"></path><path id="path2" d="M330.355 88.100 C 330.330 88.375,330.253 89.230,330.185 90.000 C 329.955 92.582,331.357 93.459,334.000 92.386 C 334.110 92.342,334.340 92.328,334.511 92.356 C 335.255 92.478,335.210 91.110,334.428 89.846 C 333.386 88.159,330.463 86.907,330.355 88.100 M248.291 94.700 C 248.205 94.865,248.097 95.705,248.050 96.566 C 248.004 97.427,247.881 98.269,247.777 98.438 C 247.672 98.607,247.789 98.870,248.036 99.022 C 248.355 99.219,248.328 99.397,247.945 99.634 C 247.513 99.901,247.565 100.099,248.202 100.614 C 248.641 100.969,248.775 101.145,248.500 101.006 C 248.225 100.867,248.000 100.943,248.000 101.176 C 248.000 101.561,248.545 101.763,249.286 101.652 C 249.443 101.629,249.480 101.848,249.368 102.139 C 249.219 102.527,249.670 102.688,251.055 102.740 C 252.095 102.780,252.984 102.854,253.031 102.906 C 253.132 103.017,253.618 105.808,253.761 107.097 C 253.816 107.591,254.011 108.131,254.195 108.297 C 254.378 108.464,254.399 108.375,254.241 108.100 C 254.082 107.825,254.143 107.600,254.376 107.600 C 254.609 107.600,254.800 107.735,254.800 107.900 C 254.800 108.065,255.644 108.248,256.674 108.307 C 258.963 108.438,258.780 108.234,258.897 110.796 C 258.972 112.441,259.154 112.967,259.697 113.109 C 260.084 113.211,260.400 113.407,260.400 113.547 C 260.400 113.686,261.244 113.848,262.274 113.907 C 264.558 114.038,264.323 113.741,264.400 116.601 C 264.492 119.971,264.450 120.400,264.026 120.400 C 262.635 120.400,261.531 121.237,262.037 121.907 C 262.482 122.496,262.477 122.525,262.001 122.100 C 261.214 121.398,260.900 121.470,260.251 122.500 C 258.789 124.817,258.949 125.096,261.717 125.061 L 264.254 125.028 264.347 123.450 C 264.398 122.582,264.268 121.766,264.058 121.636 C 263.848 121.506,264.874 121.351,266.338 121.291 C 271.021 121.099,271.627 120.413,270.477 116.600 L 269.753 114.200 267.680 113.944 C 264.426 113.542,264.400 113.518,264.400 110.868 L 264.400 108.511 261.968 108.291 C 259.010 108.022,259.177 108.188,258.913 105.277 L 258.697 102.891 256.512 102.709 C 253.861 102.489,253.766 102.352,253.490 98.334 C 253.370 96.576,253.190 95.057,253.091 94.958 C 252.747 94.613,249.200 94.525,249.200 94.861 C 249.200 95.048,249.009 95.200,248.776 95.200 C 248.543 95.200,248.464 95.020,248.600 94.800 C 248.736 94.580,248.757 94.400,248.647 94.400 C 248.537 94.400,248.377 94.535,248.291 94.700 M257.100 128.157 C 256.715 128.449,256.400 128.834,256.400 129.013 C 256.400 129.191,256.102 129.666,255.738 130.069 C 254.924 130.968,256.628 131.183,257.579 130.300 C 258.010 129.900,258.061 129.900,257.835 130.300 C 257.668 130.596,257.781 130.800,258.111 130.800 C 258.485 130.800,258.690 130.272,258.732 129.200 C 258.798 127.493,258.351 127.207,257.100 128.157 M252.000 135.600 L 251.000 136.382 252.100 136.391 C 252.936 136.398,253.200 136.208,253.200 135.600 C 253.200 134.632,253.237 134.632,252.000 135.600 M246.700 140.832 C 245.760 141.379,245.813 142.000,246.800 142.000 C 247.333 142.000,247.600 141.733,247.600 141.200 C 247.600 140.282,247.626 140.293,246.700 140.832 M302.091 151.822 C 301.315 152.365,301.200 152.805,301.200 155.223 C 301.200 157.982,301.193 158.000,300.100 158.016 C 299.003 158.031,299.003 158.033,300.334 158.611 C 302.269 159.451,302.800 158.767,302.800 155.429 C 302.800 153.749,302.962 152.800,303.250 152.800 C 303.559 152.800,303.626 153.551,303.465 155.200 C 303.294 156.941,303.363 157.602,303.715 157.606 C 304.018 157.610,303.975 157.757,303.600 158.000 C 303.182 158.270,303.880 158.390,305.900 158.394 C 308.785 158.400,308.800 158.406,308.843 159.500 C 308.971 162.791,309.019 162.993,309.700 163.124 C 310.085 163.198,310.400 163.380,310.400 163.529 C 310.400 163.678,311.244 163.848,312.274 163.907 C 314.558 164.038,314.318 163.740,314.471 166.640 C 314.582 168.725,314.700 169.045,315.300 168.889 C 315.685 168.789,316.001 168.863,316.002 169.053 C 316.003 169.244,316.751 169.443,317.664 169.495 C 319.715 169.613,319.700 169.598,319.672 171.614 C 319.653 172.961,319.766 173.222,320.281 173.024 C 320.756 172.842,320.809 172.908,320.497 173.291 C 320.202 173.651,320.235 173.943,320.611 174.288 C 321.028 174.673,321.176 174.673,321.306 174.288 C 321.430 173.918,321.606 173.911,322.035 174.260 C 322.352 174.518,323.742 174.694,325.200 174.660 L 327.800 174.600 327.742 172.275 C 327.669 169.394,327.890 169.572,324.066 169.310 C 320.064 169.035,320.003 168.993,319.727 166.313 L 319.499 164.101 317.360 163.881 C 314.478 163.583,314.400 163.501,314.400 160.776 L 314.400 158.400 312.900 158.367 C 309.110 158.282,309.240 158.385,308.881 155.209 C 308.606 152.774,308.569 152.713,307.083 152.203 C 304.324 151.256,303.038 151.158,302.091 151.822 M299.427 159.325 C 299.538 159.614,299.262 160.182,298.814 160.587 C 298.244 161.103,298.000 161.165,298.000 160.795 C 298.000 160.505,297.886 160.381,297.746 160.521 C 297.606 160.661,297.791 161.233,298.158 161.792 C 298.824 162.808,301.200 162.363,301.200 161.222 C 301.200 161.026,301.321 160.551,301.468 160.167 C 301.642 159.715,301.582 159.564,301.300 159.738 C 301.061 159.886,300.593 159.736,300.261 159.404 C 299.517 158.660,299.159 158.627,299.427 159.325 M300.702 160.500 C 300.523 161.041,298.735 162.069,298.457 161.790 C 298.250 161.584,300.064 160.032,300.533 160.013 C 300.717 160.006,300.792 160.225,300.702 160.500 M297.200 162.800 C 297.200 163.020,297.470 163.200,297.800 163.200 C 298.130 163.200,298.400 163.020,298.400 162.800 C 298.400 162.580,298.130 162.400,297.800 162.400 C 297.470 162.400,297.200 162.580,297.200 162.800 M291.600 164.474 C 291.600 164.679,291.825 164.720,292.100 164.565 C 292.500 164.339,292.500 164.390,292.100 164.821 C 291.825 165.118,291.600 165.757,291.600 166.243 C 291.600 167.504,292.901 167.068,294.195 165.372 L 295.219 164.029 293.409 164.065 C 292.414 164.085,291.600 164.269,291.600 164.474 M286.000 170.462 C 286.000 171.299,286.024 171.303,286.800 170.600 C 287.240 170.202,287.600 169.814,287.600 169.738 C 287.600 169.662,287.240 169.600,286.800 169.600 C 286.247 169.600,286.000 169.867,286.000 170.462 M280.400 175.870 L 280.400 176.939 281.400 176.000 C 281.950 175.483,282.400 175.002,282.400 174.930 C 282.400 174.859,281.950 174.800,281.400 174.800 C 280.583 174.800,280.400 174.995,280.400 175.870 M169.600 246.800 C 169.600 247.353,169.867 247.600,170.462 247.600 C 171.299 247.600,171.303 247.576,170.600 246.800 C 170.202 246.360,169.814 246.000,169.738 246.000 C 169.662 246.000,169.600 246.360,169.600 246.800 M76.000 270.014 C 76.000 270.273,75.726 270.380,75.391 270.252 C 74.545 269.927,73.016 271.496,73.550 272.140 C 73.774 272.410,73.808 272.864,73.626 273.158 C 72.721 274.622,73.568 275.165,76.943 275.285 L 80.200 275.400 80.318 278.100 L 80.437 280.800 82.318 280.861 C 83.353 280.894,84.452 280.940,84.760 280.963 C 85.518 281.018,85.938 282.226,85.972 284.444 L 86.000 286.289 88.042 286.530 C 90.705 286.846,91.096 287.228,91.421 289.828 L 91.692 292.000 94.422 292.000 C 97.536 292.000,97.753 291.817,97.657 289.271 C 97.565 286.840,97.219 286.546,94.315 286.442 C 91.323 286.334,91.668 286.653,91.555 283.883 C 91.445 281.146,91.249 280.957,88.400 280.830 C 85.748 280.711,85.984 280.933,85.901 278.479 C 85.864 277.366,85.654 276.488,85.435 276.528 C 85.216 276.568,85.028 276.390,85.018 276.133 C 85.008 275.877,84.836 275.517,84.636 275.333 C 84.424 275.140,84.392 275.210,84.559 275.500 C 84.863 276.027,84.329 276.196,83.856 275.722 C 83.703 275.570,82.932 275.412,82.143 275.372 C 80.751 275.301,79.837 274.587,80.261 273.902 C 80.375 273.716,80.228 273.268,79.934 272.906 C 79.553 272.436,79.543 272.333,79.900 272.547 C 80.215 272.736,80.400 272.616,80.400 272.224 C 80.400 271.881,80.124 271.600,79.787 271.600 C 79.450 271.600,79.011 271.195,78.812 270.700 C 78.477 269.865,78.447 269.858,78.394 270.600 C 78.362 271.043,78.247 271.176,78.134 270.898 C 78.023 270.621,77.782 270.488,77.598 270.601 C 77.415 270.715,76.980 270.523,76.632 270.175 C 76.238 269.781,76.000 269.720,76.000 270.014 M152.800 303.662 C 152.800 304.499,152.824 304.503,153.600 303.800 C 154.040 303.402,154.400 303.014,154.400 302.938 C 154.400 302.862,154.040 302.800,153.600 302.800 C 153.047 302.800,152.800 303.067,152.800 303.662 M147.200 309.262 C 147.200 310.099,147.224 310.103,148.000 309.400 C 148.440 309.002,148.800 308.614,148.800 308.538 C 148.800 308.462,148.440 308.400,148.000 308.400 C 147.447 308.400,147.200 308.667,147.200 309.262 M142.389 314.693 C 141.676 315.192,141.444 316.800,142.085 316.800 C 142.381 316.800,143.159 316.044,144.292 314.654 C 144.925 313.878,143.511 313.907,142.389 314.693 M143.208 315.390 C 142.930 315.726,142.516 316.000,142.289 316.000 C 142.062 316.000,142.203 315.639,142.602 315.198 C 143.429 314.283,143.981 314.459,143.208 315.390 M138.060 319.727 C 138.634 320.165,138.649 320.356,138.174 321.215 C 137.372 322.662,137.483 322.886,138.505 321.886 C 139.063 321.340,139.255 320.887,139.005 320.706 C 138.774 320.538,138.900 320.410,139.300 320.406 C 140.303 320.397,140.165 321.014,138.904 322.184 C 137.660 323.337,137.200 323.456,137.200 322.624 C 137.200 322.307,137.021 321.936,136.801 321.801 C 136.537 321.638,136.534 321.901,136.791 322.577 C 137.104 323.399,137.059 323.600,136.566 323.600 C 136.229 323.600,136.063 323.421,136.198 323.203 C 136.333 322.985,136.259 322.490,136.034 322.103 C 135.667 321.473,135.623 321.494,135.612 322.300 C 135.605 322.795,135.375 323.215,135.100 323.234 C 129.233 323.627,128.795 324.015,129.807 327.919 L 130.528 330.701 132.896 330.915 C 135.882 331.186,135.820 331.094,135.971 335.450 C 135.996 336.189,136.293 336.325,138.214 336.485 C 140.969 336.713,141.287 337.031,141.515 339.786 L 141.699 342.000 143.450 342.060 C 146.075 342.150,146.177 342.168,146.494 342.600 C 146.656 342.820,146.804 343.900,146.824 345.000 C 146.843 346.100,146.981 347.720,147.130 348.600 L 147.400 350.200 149.500 350.200 C 150.654 350.200,151.599 350.054,151.600 349.876 C 151.600 349.698,151.811 349.683,152.068 349.842 C 152.383 350.036,152.452 349.913,152.281 349.466 C 152.140 349.100,152.154 348.800,152.313 348.800 C 152.677 348.801,152.617 346.275,152.238 345.661 C 152.078 345.403,152.184 345.197,152.476 345.194 C 152.887 345.189,152.881 345.113,152.449 344.839 C 152.128 344.635,152.028 344.278,152.211 343.983 C 152.407 343.665,152.362 343.576,152.090 343.744 C 151.838 343.900,151.604 343.635,151.529 343.108 C 151.417 342.324,151.142 342.194,149.459 342.127 C 147.078 342.033,147.155 342.112,147.072 339.674 C 147.034 338.568,146.838 337.776,146.634 337.903 C 146.430 338.028,146.375 337.841,146.512 337.486 C 146.686 337.033,146.587 336.907,146.180 337.063 C 145.861 337.186,145.600 337.131,145.600 336.943 C 145.600 336.754,144.756 336.552,143.726 336.493 C 141.499 336.365,141.704 336.525,141.559 334.800 C 141.494 334.030,141.277 333.177,141.076 332.905 C 140.875 332.633,140.813 332.144,140.938 331.818 C 141.063 331.492,140.965 331.102,140.721 330.951 C 140.452 330.785,140.389 330.859,140.562 331.138 C 140.719 331.392,140.657 331.600,140.424 331.600 C 140.191 331.600,140.000 331.443,140.000 331.252 C 140.000 331.061,139.685 330.905,139.300 330.907 C 138.915 330.908,138.015 330.885,137.300 330.855 L 136.000 330.800 136.000 327.982 L 136.000 325.164 133.200 325.429 C 131.407 325.598,130.400 325.547,130.400 325.289 C 130.400 325.062,131.814 324.820,133.617 324.739 C 135.909 324.635,136.942 324.421,137.211 323.996 C 137.418 323.668,137.591 323.540,137.594 323.710 C 137.624 325.256,140.470 322.153,140.629 320.400 C 140.679 319.850,140.639 319.606,140.541 319.858 C 140.340 320.372,138.800 320.103,138.800 319.553 C 138.800 319.359,138.485 319.206,138.100 319.213 C 137.455 319.224,137.451 319.265,138.060 319.727 M66.593 352.340 C 66.450 352.483,66.138 352.600,65.900 352.600 C 65.662 352.600,65.383 352.850,65.281 353.156 C 65.170 353.490,65.274 353.601,65.544 353.435 C 65.823 353.262,65.906 353.379,65.765 353.747 C 65.219 355.171,68.690 357.870,69.730 356.830 C 70.270 356.290,70.446 353.137,69.968 352.562 C 69.549 352.057,67.041 351.892,66.593 352.340 " stroke="none" fill="#999999" fill-rule="evenodd"></path><path id="path3" d="M302.800 155.587 C 302.800 158.046,302.880 158.344,303.480 158.114 C 303.877 157.962,303.967 157.789,303.697 157.699 C 303.381 157.594,303.309 156.795,303.467 155.173 C 303.626 153.545,303.558 152.800,303.250 152.800 C 302.960 152.800,302.800 153.791,302.800 155.587 M297.252 160.400 C 297.354 162.639,297.372 162.652,299.167 161.757 C 301.976 160.355,301.695 158.418,298.680 158.406 L 297.160 158.400 297.252 160.400 M300.218 159.361 C 300.700 159.843,300.692 159.956,300.164 160.158 C 299.821 160.290,299.676 160.600,299.836 160.859 C 300.007 161.135,299.950 161.216,299.694 161.058 C 299.458 160.912,298.997 161.060,298.671 161.386 C 298.147 161.911,298.049 161.904,297.829 161.332 C 297.693 160.977,297.675 160.591,297.791 160.476 C 297.906 160.361,298.000 160.505,298.000 160.795 C 298.000 161.165,298.244 161.103,298.814 160.587 C 299.262 160.182,299.538 159.614,299.427 159.325 C 299.164 158.641,299.514 158.656,300.218 159.361 M136.082 321.633 C 136.147 322.715,136.369 323.600,136.575 323.600 C 137.685 323.600,140.400 320.926,140.400 319.834 C 140.400 319.763,139.402 319.696,138.182 319.685 L 135.964 319.665 136.082 321.633 M139.400 320.400 C 138.960 320.589,138.819 320.756,139.086 320.772 C 139.363 320.788,139.192 321.194,138.686 321.720 C 137.537 322.913,137.388 322.771,138.181 321.237 C 138.537 320.549,139.127 320.012,139.510 320.028 C 140.088 320.052,140.070 320.112,139.400 320.400 M130.400 325.249 C 130.400 325.562,131.210 325.619,133.078 325.438 C 136.682 325.088,136.767 324.800,133.267 324.800 C 131.413 324.800,130.400 324.959,130.400 325.249 " stroke="none" fill="#dddddd" fill-rule="evenodd"></path><path id="path4" d="M331.106 87.083 C 331.604 87.179,331.910 87.422,331.785 87.624 C 331.660 87.826,331.838 87.884,332.179 87.753 C 332.521 87.622,332.800 87.694,332.800 87.913 C 332.800 88.132,333.114 88.286,333.498 88.256 C 333.925 88.222,334.467 88.742,334.897 89.600 C 335.328 90.460,335.599 90.720,335.599 90.274 C 335.601 88.584,332.992 86.689,330.892 86.854 C 330.450 86.889,330.528 86.972,331.106 87.083 M250.786 103.873 C 252.540 106.103,253.200 106.253,253.200 104.423 L 253.200 102.800 251.571 102.800 L 249.942 102.800 250.786 103.873 M254.800 108.638 C 254.800 108.769,255.192 109.444,255.670 110.138 C 256.149 110.832,256.554 111.420,256.570 111.444 C 257.349 112.596,258.800 111.792,258.800 110.208 L 258.800 108.400 256.800 108.400 C 255.700 108.400,254.800 108.507,254.800 108.638 M261.248 115.600 C 261.743 116.480,262.369 117.200,262.641 117.200 C 262.912 117.200,263.419 117.309,263.767 117.443 C 264.288 117.643,264.400 117.359,264.400 115.843 L 264.400 114.000 262.374 114.000 L 260.349 114.000 261.248 115.600 M260.495 120.666 C 260.218 120.778,259.788 121.259,259.541 121.735 C 259.125 122.536,259.177 122.526,260.246 121.600 C 260.881 121.050,261.475 120.555,261.567 120.500 C 261.859 120.325,261.020 120.455,260.495 120.666 M256.227 127.179 C 255.015 127.977,254.039 129.381,254.014 130.360 C 254.006 130.668,254.541 130.173,255.203 129.260 C 256.247 127.819,257.741 126.801,256.962 128.062 C 256.779 128.357,256.853 128.415,257.165 128.222 C 257.433 128.056,257.546 127.812,257.414 127.681 C 257.283 127.549,257.586 127.214,258.087 126.935 C 258.935 126.464,258.943 126.428,258.200 126.417 C 257.760 126.410,256.872 126.753,256.227 127.179 M250.429 134.291 C 248.204 136.990,249.005 137.210,251.532 134.593 C 252.968 133.107,253.127 132.800,252.461 132.800 C 252.020 132.800,251.105 133.471,250.429 134.291 M245.138 139.617 C 243.673 141.157,243.237 142.000,243.906 142.000 C 244.267 142.000,247.600 138.619,247.600 138.252 C 247.600 137.566,246.519 138.166,245.138 139.617 M239.617 145.138 C 237.478 147.172,237.545 147.600,240.000 147.600 L 242.000 147.600 242.000 145.600 C 242.000 143.196,241.716 143.141,239.617 145.138 M234.291 150.429 C 232.161 152.185,232.274 153.200,234.600 153.200 L 236.400 153.200 236.400 151.200 C 236.400 148.855,236.262 148.805,234.291 150.429 M230.400 156.000 C 230.400 156.220,230.142 156.400,229.827 156.400 C 229.512 156.400,228.870 156.940,228.400 157.600 C 227.211 159.269,228.356 159.243,229.764 157.569 C 230.725 156.428,231.076 155.600,230.600 155.600 C 230.490 155.600,230.400 155.780,230.400 156.000 M304.800 158.638 C 304.800 158.769,305.192 159.444,305.670 160.138 C 306.149 160.832,306.554 161.420,306.570 161.444 C 307.349 162.596,308.800 161.792,308.800 160.208 L 308.800 158.400 306.800 158.400 C 305.700 158.400,304.800 158.507,304.800 158.638 M301.520 159.680 C 301.784 159.944,301.997 160.439,301.994 160.780 C 301.988 161.328,301.937 161.330,301.556 160.800 C 301.185 160.284,301.154 160.293,301.335 160.863 C 301.482 161.324,301.182 161.676,300.346 162.022 C 299.472 162.384,299.289 162.610,299.673 162.854 C 300.077 163.110,300.045 163.189,299.533 163.194 C 299.167 163.197,298.776 162.975,298.665 162.700 C 298.544 162.401,298.450 162.482,298.432 162.900 C 298.399 163.630,298.831 163.742,300.231 163.366 C 301.881 162.923,303.212 159.200,301.720 159.200 C 301.191 159.200,301.147 159.307,301.520 159.680 M223.229 162.654 C 222.361 163.757,222.176 164.400,222.725 164.400 C 223.115 164.400,225.200 162.275,225.200 161.878 C 225.200 161.212,223.988 161.689,223.229 162.654 M310.996 165.193 C 311.513 166.191,313.376 167.600,314.180 167.600 C 314.301 167.600,314.400 166.790,314.400 165.800 L 314.400 164.000 312.390 164.000 L 310.379 164.000 310.996 165.193 M295.088 165.667 C 294.625 166.474,294.183 166.802,293.774 166.646 C 293.436 166.516,293.263 166.579,293.391 166.786 C 293.519 166.993,293.123 167.433,292.512 167.765 C 291.715 168.197,291.600 168.373,292.106 168.384 C 293.213 168.409,295.591 166.696,295.856 165.681 C 296.216 164.305,295.873 164.299,295.088 165.667 M218.254 167.629 C 216.824 168.754,216.887 169.600,218.400 169.600 C 219.505 169.600,219.600 169.489,219.600 168.200 C 219.600 166.555,219.612 166.561,218.254 167.629 M288.215 170.772 C 287.881 171.416,287.247 172.058,286.804 172.199 C 286.095 172.424,285.642 173.200,286.220 173.200 C 287.024 173.200,288.887 171.791,289.404 170.793 C 289.948 169.740,289.950 169.600,289.421 169.600 C 289.091 169.600,288.548 170.127,288.215 170.772 M317.200 170.138 C 317.200 170.656,318.057 171.569,319.100 172.163 C 319.460 172.367,319.600 172.048,319.600 171.024 C 319.600 169.708,319.509 169.600,318.400 169.600 C 317.661 169.600,317.200 169.807,317.200 170.138 M212.889 173.023 C 212.400 173.365,212.000 173.905,212.000 174.223 C 212.000 174.540,211.845 174.800,211.657 174.800 C 210.970 174.800,210.258 180.588,210.817 181.632 C 211.551 183.004,213.244 184.400,214.174 184.400 C 214.298 184.400,214.400 181.700,214.400 178.400 C 214.400 172.166,214.353 171.998,212.889 173.023 M281.375 176.100 L 280.200 177.400 281.500 176.225 C 282.215 175.579,282.800 174.994,282.800 174.925 C 282.800 174.616,282.470 174.888,281.375 176.100 M283.311 175.300 C 283.098 175.575,282.811 176.118,282.672 176.506 C 282.534 176.894,281.966 177.385,281.410 177.596 C 280.543 177.926,279.969 178.800,280.620 178.800 C 281.843 178.800,284.400 176.243,284.400 175.020 C 284.400 174.615,283.702 174.794,283.311 175.300 M275.200 182.410 L 275.200 184.421 276.393 183.804 C 277.391 183.287,278.800 181.424,278.800 180.620 C 278.800 180.499,277.990 180.400,277.000 180.400 L 275.200 180.400 275.200 182.410 M217.088 186.816 C 217.297 187.615,219.600 189.145,219.600 188.485 C 219.600 188.110,217.491 186.000,217.116 186.000 C 216.983 186.000,216.971 186.367,217.088 186.816 M269.600 188.010 L 269.600 190.021 270.793 189.404 C 271.791 188.887,273.200 187.024,273.200 186.220 C 273.200 186.099,272.390 186.000,271.400 186.000 L 269.600 186.000 269.600 188.010 M222.400 191.971 C 222.400 192.443,223.432 193.482,224.431 194.017 C 225.610 194.647,225.397 193.735,224.100 192.593 C 222.928 191.562,222.400 191.369,222.400 191.971 M265.075 192.722 C 263.779 194.075,263.606 195.199,264.875 194.016 C 265.357 193.567,265.854 193.200,265.979 193.200 C 266.105 193.200,266.432 192.840,266.707 192.400 C 267.489 191.148,266.371 191.368,265.075 192.722 M227.600 197.336 C 227.600 197.410,228.320 198.138,229.200 198.952 C 230.231 199.906,230.800 200.219,230.800 199.832 C 230.800 199.124,228.830 197.200,228.104 197.200 C 227.827 197.200,227.600 197.261,227.600 197.336 M259.431 198.368 C 258.815 199.010,258.379 199.737,258.461 199.982 C 258.543 200.228,259.319 199.702,260.186 198.814 C 261.178 197.798,261.538 197.200,261.156 197.200 C 260.823 197.200,260.046 197.726,259.431 198.368 M234.600 204.400 C 236.347 206.189,236.400 206.220,236.400 205.455 C 236.400 204.707,234.435 202.800,233.664 202.800 C 233.251 202.800,233.571 203.346,234.600 204.400 M252.800 204.481 L 252.800 206.162 254.400 204.600 C 255.280 203.741,256.000 202.984,256.000 202.919 C 256.000 202.853,255.280 202.800,254.400 202.800 L 252.800 202.800 252.800 204.481 M238.000 208.715 C 238.000 208.888,238.522 209.653,239.159 210.415 L 240.318 211.800 243.659 211.705 C 247.323 211.601,248.142 211.303,249.530 209.564 L 250.461 208.400 244.230 208.400 C 240.804 208.400,238.000 208.542,238.000 208.715 M164.000 240.384 L 164.000 242.000 165.600 242.000 C 166.480 242.000,167.200 241.939,167.200 241.864 C 167.200 241.790,166.480 241.062,165.600 240.248 L 164.000 238.768 164.000 240.384 M169.600 244.167 C 169.600 244.490,170.140 245.074,170.801 245.464 C 171.461 245.854,172.103 246.494,172.227 246.887 C 172.431 247.529,173.200 247.919,173.200 247.380 C 173.200 246.576,171.791 244.713,170.793 244.196 C 169.757 243.661,169.600 243.657,169.600 244.167 M175.200 251.209 L 175.200 253.200 177.000 253.200 C 179.054 253.200,179.082 253.151,178.010 251.416 C 176.489 248.956,175.200 248.861,175.200 251.209 M134.629 251.451 C 133.641 252.410,133.263 253.021,133.590 253.130 C 134.195 253.332,136.523 250.970,136.320 250.361 C 136.244 250.131,135.482 250.622,134.629 251.451 M129.200 255.648 C 127.528 256.657,127.766 256.377,127.449 257.700 C 127.190 258.777,127.223 258.800,128.992 258.800 L 130.800 258.800 130.800 256.800 C 130.800 255.700,130.755 254.801,130.700 254.801 C 130.645 254.802,129.970 255.183,129.200 255.648 M180.400 257.224 C 180.400 258.792,180.408 258.800,181.976 258.800 C 183.818 258.800,183.500 257.256,181.438 256.186 C 180.405 255.650,180.400 255.655,180.400 257.224 M123.732 261.083 C 123.034 261.431,122.379 262.004,122.277 262.358 C 122.175 262.711,121.961 263.315,121.803 263.700 C 121.553 264.307,121.759 264.400,123.357 264.400 L 125.200 264.400 125.200 262.400 C 125.200 261.300,125.155 260.412,125.100 260.426 C 125.045 260.440,124.429 260.736,123.732 261.083 M186.000 268.101 C 186.000 272.184,186.028 272.318,186.833 272.107 C 189.082 271.519,189.050 266.636,186.783 264.585 C 186.010 263.885,186.000 263.931,186.000 268.101 M118.345 266.504 C 117.764 266.734,117.002 267.525,116.651 268.261 L 116.013 269.600 117.806 269.600 L 119.600 269.600 119.600 267.800 C 119.600 266.810,119.555 266.019,119.500 266.043 C 119.445 266.066,118.925 266.274,118.345 266.504 M113.100 272.861 C 112.495 273.304,112.000 273.907,112.000 274.200 C 112.000 274.493,111.775 274.824,111.500 274.935 C 111.110 275.092,111.109 275.144,111.494 275.168 C 111.765 275.186,112.556 274.692,113.251 274.071 C 114.803 272.684,114.681 271.703,113.100 272.861 M180.400 276.387 C 180.400 278.341,181.702 278.168,182.881 276.058 L 183.584 274.800 181.992 274.800 C 180.404 274.800,180.400 274.803,180.400 276.387 M86.000 278.973 L 86.000 280.800 88.000 280.800 C 90.310 280.800,90.395 280.621,88.900 278.915 C 87.009 276.758,86.000 276.778,86.000 278.973 M106.987 279.040 C 106.195 279.832,105.644 280.577,105.762 280.696 C 106.110 281.043,108.800 278.815,108.800 278.180 C 108.800 277.339,108.587 277.440,106.987 279.040 M176.204 281.596 C 175.574 282.254,175.141 282.875,175.243 282.976 C 175.623 283.356,177.329 282.166,177.645 281.300 C 178.097 280.064,177.568 280.173,176.204 281.596 M91.600 284.200 L 91.600 286.400 93.800 286.400 C 96.821 286.400,96.907 284.110,93.941 282.630 C 91.850 281.587,91.600 281.755,91.600 284.200 M101.458 284.613 L 99.916 286.200 101.398 286.327 C 103.232 286.483,103.282 286.432,103.127 284.553 L 103.000 283.025 101.458 284.613 M170.675 287.122 C 169.269 288.589,169.313 288.969,170.800 288.200 C 171.460 287.859,172.000 287.509,172.000 287.422 C 172.000 287.336,172.109 286.981,172.243 286.633 C 172.621 285.648,171.859 285.886,170.675 287.122 M165.075 292.722 C 163.779 294.075,163.606 295.199,164.875 294.016 C 165.357 293.567,165.854 293.200,165.979 293.200 C 166.105 293.200,166.432 292.840,166.707 292.400 C 167.489 291.148,166.371 291.368,165.075 292.722 M158.400 299.200 C 158.400 301.561,158.673 301.643,160.572 299.853 C 162.580 297.959,162.474 297.200,160.200 297.200 L 158.400 297.200 158.400 299.200 M154.400 304.600 C 153.090 305.935,152.818 306.400,153.347 306.400 C 154.230 306.400,156.400 304.289,156.400 303.431 C 156.400 302.565,156.392 302.570,154.400 304.600 M149.696 309.249 C 149.313 309.715,148.550 310.542,148.000 311.087 L 147.000 312.077 148.000 311.789 C 149.327 311.408,149.934 310.888,150.637 309.529 C 151.329 308.190,150.715 308.007,149.696 309.249 M143.030 314.364 C 143.128 314.461,142.801 314.983,142.304 315.525 L 141.400 316.509 142.283 316.049 C 142.768 315.797,143.362 315.277,143.602 314.895 C 143.967 314.313,143.999 314.363,143.798 315.200 L 143.558 316.200 144.379 315.256 C 145.356 314.132,145.476 314.627,144.549 315.952 C 144.177 316.483,143.790 316.707,143.646 316.475 C 143.484 316.212,143.041 316.274,142.397 316.651 L 141.400 317.233 142.400 317.015 C 143.388 316.798,143.390 316.801,142.500 317.259 C 141.454 317.797,141.316 318.400,142.238 318.400 C 142.896 318.400,145.172 316.963,145.694 316.219 C 146.534 315.020,146.015 314.187,144.427 314.187 C 143.561 314.187,142.933 314.266,143.030 314.364 M140.593 320.789 C 140.939 321.348,139.673 323.123,138.711 323.428 C 138.065 323.633,138.010 323.761,138.447 324.038 C 138.751 324.230,138.811 324.391,138.580 324.394 C 138.349 324.397,137.944 324.184,137.680 323.920 C 137.307 323.547,137.200 323.602,137.200 324.170 C 137.200 324.776,137.415 324.857,138.462 324.648 C 140.136 324.313,140.871 323.653,140.582 322.744 C 140.452 322.335,140.538 322.000,140.773 322.000 C 141.008 322.000,141.200 321.640,141.200 321.200 C 141.200 320.760,141.009 320.400,140.776 320.400 C 140.543 320.400,140.461 320.575,140.593 320.789 M136.000 329.000 L 136.000 330.800 138.000 330.800 C 140.345 330.800,140.395 330.662,138.771 328.691 C 137.015 326.561,136.000 326.674,136.000 329.000 M141.600 334.600 L 141.600 336.400 143.600 336.400 C 145.945 336.400,145.995 336.262,144.371 334.291 C 142.615 332.161,141.600 332.274,141.600 334.600 M147.200 340.351 L 147.200 342.000 148.849 342.000 C 150.563 342.000,150.581 341.784,148.998 340.202 C 147.416 338.619,147.200 338.637,147.200 340.351 M64.449 353.000 C 64.198 355.272,67.503 358.589,69.297 357.866 C 69.592 357.747,69.501 357.650,69.076 357.632 C 68.678 357.614,68.454 357.437,68.577 357.237 C 68.700 357.038,68.479 356.959,68.085 357.062 C 67.069 357.328,65.060 355.379,65.321 354.380 C 65.433 353.950,65.376 353.691,65.193 353.804 C 65.010 353.917,64.778 353.693,64.677 353.305 C 64.576 352.917,64.473 352.780,64.449 353.000 " stroke="none" fill="#ffffff" fill-rule="evenodd"></path></g></svg>