<svg xmlns="http://www.w3.org/2000/svg" width="275" height="60" viewBox="0 0 275 60">
    <path fill="#2B2D32" fill-rule="nonzero" d="M0 43.61c0 2.893 2.35 5.244 5.424 5.244H27.12v-5.425H5.424v-5.423h21.334c2.893 0 5.786-2.35 5.786-5.243v.18-10.667c0-2.893-2.712-5.786-5.786-5.786H5.424C2.531 16.49 0 19.383 0 22.276V43.61zm27.12-11.029H5.424V21.733H27.12v10.848zm72.5-16.271H78.105c-2.892 0-5.785 2.893-5.785 5.786V43.61v-.182c0 2.893 2.893 5.425 5.785 5.425H99.44v5.424H77.744v5.424H99.62c2.893 0 5.244-2.532 5.244-5.424V22.096c0-2.893-2.351-5.786-5.244-5.786zm-.18 27.12H77.743V21.732h21.695V43.43zM57.855 16.31H41.765c-2.893 0-5.605 2.893-5.605 5.786v26.758h5.424v-27.12h16.272c2.892 0 5.424 2.711 5.424 5.785v21.335h5.423V27.519c0-5.966-4.881-11.209-10.847-11.209zM135.6 43.43h-21.696V27.337c0-2.893 2.893-5.785 5.966-5.785h15.73v27.12h5.423V22.096c0-2.893-2.17-5.786-5.062-5.786h-16.09c-5.967 0-11.391 5.243-11.391 11.209v16.092c0 2.892 3.073 5.243 5.966 5.243h9.402c4.882 0 9.944-1.989 11.752-5.425v5.425-5.425zM258.543.037h-5.423v48.816h5.423v-27.12h16.273V16.31h-16.273V.038zM182.607 43.61c0 2.892 1.627 5.243 4.52 5.243h20.793v5.424h-19.888v5.424h20.61c2.894 0 4.701-2.532 4.701-5.606v.182-32.182c0-2.893-1.807-5.786-4.7-5.786h-21.515c-2.894 0-4.52 2.893-4.52 5.786V43.61zm25.313-.182h-19.888V21.733h19.888V43.43zM171.76 16.31h-20.974c-2.892 0-6.146 2.893-6.146 5.786V43.61v-.182c0 2.893 3.254 5.425 6.146 5.425h26.398V.038h-5.425V16.31zm0 27.12h-21.696V21.732h21.695V43.43zm45.199.18c0 2.893 3.074 5.244 5.966 5.244h21.154v-5.425h-21.696v-5.423h22.059c2.892 0 5.06-2.35 5.06-5.243v.18-10.667c0-2.893-2.168-5.786-5.06-5.786h-21.517c-2.892 0-5.966 2.893-5.966 5.786V43.61zm27.12-11.029h-21.696V21.733h21.696v10.848z"/>
</svg>
