<svg xmlns="http://www.w3.org/2000/svg" width="188" height="49" viewBox="0 0 188 49">
    <path fill="#33629A" fill-rule="nonzero" d="M53.84 48.125c-.853.2-1.765.28-3.57.316-1.334.027-2.577.02-2.762-.014-2.165-.403-2.76-.541-3.57-.83-2.29-.814-3.886-1.841-5.527-3.553-2.975-3.106-4.509-7.538-4.509-13.03 0-5.292 1.698-9.802 4.908-13.034 2.997-3.018 6.892-4.519 11.729-4.519 4.562 0 8.092 1.266 10.893 3.908 3.45 3.254 5.235 8.302 5.029 14.223-.21 6.006-2.48 10.753-6.623 13.85-1.703 1.273-3.609 2.125-5.999 2.683zm-2.184-2.114c.955-.283 2.132-1.388 2.76-2.589 1.295-2.479 1.873-6.144 1.888-11.965.018-7.295-1.125-11.937-3.537-14.367-1.013-1.021-1.732-1.338-3.027-1.336-2.874.005-4.698 3.007-5.419 8.92-.331 2.717-.333 9.192-.003 11.568 1.02 7.354 3.657 10.863 7.338 9.77zm60.58 2.294c-3.28.492-8.522.104-13.783-1.022l-1.389-.297.104-2.575c.176-4.342.135-33.758-.049-35.466-.23-2.142-.582-3.17-1.36-3.973-.634-.657-.938-.79-2.646-1.166-.497-.11-.536-.152-.565-.623-.026-.422.017-.516.264-.574.162-.038 3.084-.586 6.492-1.217 3.408-.631 6.44-1.197 6.737-1.256l.54-.109-.05 7.863c-.044 6.865-.026 7.863.148 7.863.11 0 .725-.247 1.368-.549 2.582-1.21 5.977-1.64 8.615-1.091 3.518.732 6.616 3.218 8.428 6.762 1.337 2.616 1.864 4.725 1.987 7.953.239 6.27-1.53 11.358-5.205 14.963-2.542 2.494-5.544 3.9-9.636 4.514zm-2.212-2.359c.979-.186 1.739-.576 2.555-1.31 2.046-1.84 3.584-5.64 4.19-10.348.245-1.918.212-6.287-.06-7.888-.74-4.328-2.327-7.173-4.642-8.319-.96-.475-1.109-.508-2.248-.508-.815 0-1.516.087-2.112.263l-.892.263-.066 4.926c-.085 6.311.12 22.111.293 22.565.11.289.23.35.776.393 1.284.101 1.496.098 2.206-.037zm39.321 2.355c3.121-.506 6.195-2.006 8.404-4.099 1.21-1.146 1.612-1.7 1.443-1.99-.449-.773-.43-.772-1.576-.068-1.826 1.122-2.74 1.432-4.886 1.652-2.505.257-4.816-.162-6.951-1.26-1.417-.73-3.114-2.406-3.963-3.913-1.158-2.058-1.786-4.462-1.973-7.55-.079-1.298-.062-1.62.09-1.717.104-.066 4.596-.12 10.056-.121l9.867-.002v-.39c0-.887-.29-3.27-.551-4.52-1.048-5.023-3.816-8.606-7.762-10.047-1.57-.573-3.056-.815-5.014-.815-4.64 0-8.43 1.523-11.36 4.566-2.338 2.426-3.724 5.151-4.57 8.982-.256 1.154-.298 1.754-.298 4.178 0 2.407.043 3.028.29 4.14 1.571 7.071 6.22 11.727 12.898 12.92 1.692.302 4.186.325 5.856.054zm-1.761-21.713c-1.29.045-3.48.1-4.87.122l-2.526.041.003-.545c.001-.3.087-1.091.19-1.759.842-5.428 2.865-8.686 5.398-8.689 2.33-.003 3.767 3.208 4.064 9.082l.085 1.666-2.344.082zm29.111 21.725c-1.579.24-4.782.232-6.87-.018-2.69-.321-6.568-1.242-7.166-1.702-.2-.154-.237-.707-.322-4.92l-.095-4.748.38-.145c.829-.315.866-.288 1.411 1.04 2.09 5.091 4.655 7.503 8.3 7.801 2.681.22 4.729-.854 5.753-3.016.392-.827.427-1.016.427-2.251 0-1.282-.023-1.39-.467-2.21a5.175 5.175 0 0 0-1.263-1.525c-.905-.754-3.296-1.949-5.611-2.804-2.943-1.088-4.67-2.103-6-3.526-1.543-1.654-2.242-3.547-2.254-6.111-.008-1.806.247-2.961.987-4.46 1.39-2.82 4.053-4.847 7.643-5.821 1.236-.336 1.48-.356 4.473-.359 2.507-.003 3.446.048 4.513.245 1.418.26 3.57.847 4.395 1.196l.49.207.099 4.199c.055 2.31.059 4.24.008 4.291-.051.051-.335.165-.632.252-.47.139-.548.13-.616-.065-.436-1.262-1.332-3.308-1.768-4.037-1.37-2.29-2.886-3.529-4.903-4.005-1.67-.394-3.103-.21-4.246.546-1.367.902-2.082 2.35-2.097 4.239-.01 1.252.223 1.974.94 2.913.866 1.137 2.982 2.403 6.512 3.897 4.752 2.01 6.671 3.434 7.806 5.793.81 1.685 1.03 4.205.561 6.47-.97 4.693-4.665 7.764-10.388 8.634zM24.607 46.824v.742H.494v-1.46l.676-.146c.373-.08 1.093-.214 1.602-.298 1.848-.305 2.967-1.314 3.569-3.218.73-2.316.875-4.702.98-16.176.099-10.86-.115-16.661-.709-19.234-.382-1.656-.99-2.707-1.977-3.422-.651-.473-1.244-.649-2.861-.851L.56 2.609l-.04-.842-.04-.842H38.05l.077 2.056c.043 1.13.108 4.037.145 6.458l.067 4.403-.953.29c-.524.16-.967.27-.983.248a25.455 25.455 0 0 1-.401-1.12c-.204-.594-.666-1.701-1.026-2.462-1.603-3.386-3.521-5.337-6.187-6.293l-1.151-.412-4.946-.042-4.947-.04-.066.31c-.178.825-.534 18.573-.378 18.808.084.127.757.133 3 .03 1.59-.074 3.164-.197 3.497-.274 1.357-.314 2.424-1.277 3.182-2.873.483-1.02.994-2.636.994-3.147 0-.284.058-.303.876-.303h.876v15.65l-.823-.04-.822-.041-.313-1.241c-.71-2.817-2.129-4.629-3.97-5.07-.665-.159-6.36-.386-6.488-.258-.14.14.076 9.256.294 12.358.307 4.365 1.098 6.413 2.808 7.275.481.242 3.472.888 4.114.888.045 0 .081.333.081.741zm62.102.012v.73H66.892l.04-.708.041-.708 1.197-.233c.658-.129 1.385-.344 1.616-.478.624-.36 1.244-1.377 1.483-2.431.47-2.064.631-17.177.226-21.054-.31-2.974-1.047-3.99-3.132-4.326-1.516-.244-1.457-.215-1.457-.724 0-.254.054-.495.12-.535.16-.099 1.087-.294 7.76-1.634 3.113-.625 5.805-1.171 5.983-1.213l.325-.077-.092 3.715c-.074 2.969-.058 3.715.08 3.714.093 0 .461-.533.816-1.183 2.139-3.913 5.108-6.138 8.454-6.332 1.25-.072 2.22.081 3.338.529.523.209.702.346.658.503-.096.347-3.202 8.56-3.258 8.615-.028.028-.495-.167-1.037-.433-1.891-.928-4.31-1.27-6.2-.875-.932.195-2.249.82-2.67 1.27l-.334.355v7.707c0 9.874.199 12.31 1.115 13.631.633.911 1.293 1.153 3.7 1.356l1.045.089v.73z"/>
</svg>
