<svg xmlns="http://www.w3.org/2000/svg" width="275" height="40" viewBox="0 0 275 40">
    <g fill="#100F0D" fill-rule="nonzero">
        <path d="M44.965 35.271V5.276c0-1.557.356-2.727 1.066-3.505.71-.78 1.63-1.17 2.755-1.17 1.161 0 2.1.387 2.82 1.157.72.77 1.08 1.942 1.08 3.518v29.995c0 1.575-.36 2.752-1.08 3.531-.72.78-1.659 1.17-2.82 1.17-1.11 0-2.023-.394-2.742-1.182-.72-.788-1.079-1.962-1.079-3.519M254.704 8.59c-6.457 0-11.71 5.253-11.71 11.71 0 6.455 5.253 11.708 11.71 11.708 6.456 0 11.709-5.253 11.709-11.709 0-6.456-5.253-11.71-11.709-11.71m0 31.383c-10.848 0-19.673-8.826-19.673-19.673 0-10.848 8.825-19.673 19.673-19.673 10.848 0 19.672 8.825 19.672 19.673 0 10.847-8.824 19.673-19.672 19.673M166.39 8.59c-6.457 0-11.71 5.253-11.71 11.71 0 6.455 5.253 11.708 11.71 11.708 6.456 0 11.708-5.253 11.708-11.709 0-6.456-5.252-11.71-11.709-11.71m0 31.383c-10.847 0-19.672-8.826-19.672-19.673 0-10.848 8.825-19.673 19.672-19.673 10.848 0 19.673 8.825 19.673 19.673 0 10.847-8.825 19.673-19.673 19.673M210.449 31.912c-.952.062-1.976.073-3.078.073h-5.165V8.589h5.165c1.102 0 2.126.012 3.078.073a11.711 11.711 0 0 1 8.245 4.99 11.643 11.643 0 0 1 2.068 6.611l.001.02v.028a11.647 11.647 0 0 1-2.07 6.61 11.713 11.713 0 0 1-8.244 4.99m18.279-11.624v-.006a19.595 19.595 0 0 0-3.807-11.614C221.445 3.929 215.906.8 209.639.617c-.195-.006-.389-.015-.585-.015l-9.879.012c-1.686 0-2.908.385-3.663 1.153-.756.768-1.133 2.009-1.133 3.725v29.59c0 1.716.377 2.957 1.133 3.725.755.769 1.977 1.153 3.663 1.153l9.879.012c.196 0 .39-.01.585-.015 6.267-.185 11.806-3.312 15.282-8.05a19.595 19.595 0 0 0 3.807-11.615v-.005M135.575.777a3.375 3.375 0 0 0-3.828 1.394L119.886 20.24 108.024 2.17a3.375 3.375 0 0 0-3.828-1.394c-1.437.447-2.418 1.802-2.418 3.338v32.113c0 1.927 1.528 3.489 3.412 3.489 1.885 0 3.413-1.562 3.413-3.489V15.575l8.422 12.828.017.026.01.016.033.045c.052.077.106.153.166.227.026.032.053.061.08.092.048.054.093.108.143.159.045.046.094.09.141.133l.105.096c.068.056.136.107.206.157.02.014.038.03.059.044l.008.005c.075.051.153.098.233.143.021.012.043.027.065.039.059.032.12.059.182.088a3.343 3.343 0 0 0 1.078.3c.072.007.145.008.216.012.04.001.08.005.119.005.04 0 .08-.004.119-.005.072-.004.144-.005.216-.011a3.345 3.345 0 0 0 1.079-.301c.061-.03.123-.056.181-.088.023-.012.044-.027.066-.04.08-.044.157-.09.232-.142l.01-.005c.02-.014.037-.03.057-.044.07-.05.14-.1.206-.157.037-.031.07-.064.107-.097.046-.043.094-.086.139-.131.05-.052.096-.107.143-.16.028-.03.055-.06.08-.092.06-.074.114-.15.167-.227.01-.016.022-.03.033-.045l.01-.016.017-.026 8.42-12.828v20.653c0 1.927 1.528 3.489 3.415 3.489 1.883 0 3.412-1.562 3.412-3.489V4.115c0-1.536-.982-2.89-2.42-3.338M90.163 38.775h-25.51c-1.342 0-2.833-.84-3.385-2.146-.553-1.305-.666-3.082.522-4.498L82.658 7.918h-17.24c-1.884 0-3.413-1.632-3.413-3.646 0-2.014 1.529-3.244 3.413-3.244h23.248c1.341 0 2.73.213 3.945 1.543 1.109 1.215 1.06 3.838-.182 5.402l-20.163 23.51h17.897c1.886 0 3.258 1.633 3.258 3.646s-1.372 3.646-3.258 3.646M19.53 39.972c-5.66 0-10.794-2.245-14.455-6.32C1.849 30.062 0 25.33 0 20.67 0 6.051 12.154.602 19.815.602c7.532 0 13.062 3.694 13.293 3.85 1.697 1.152 2.15 3.478 1.014 5.196a3.67 3.67 0 0 1-5.114 1.037c-.099-.063-4.021-2.593-9.193-2.593-4.802 0-11.425 3.17-11.425 12.579 0 5.353 3.982 11.667 11.283 11.667 4.108 0 6.996-1.094 8.675-2.163v-5.567H22.66c-2.042 0-3.697-1.677-3.697-3.745s1.655-3.745 3.697-3.745h9.387c2.042 0 3.697 1.677 3.697 3.745V32a3.77 3.77 0 0 1-1.122 2.688c-2.479 2.437-7.918 5.283-15.09 5.283"/>
    </g>
</svg>
