<svg xmlns="http://www.w3.org/2000/svg" width="72" height="72" viewBox="0 0 72 72">
    <g fill="#2B2B2B" fill-rule="evenodd" transform="translate(1 1)">
        <circle cx="35" cy="35" r="35" stroke="#2B2B2B" stroke-width="2"/>
        <g fill="#FFFFFF" fill-rule="nonzero">
            <path d="M38.833 15c-2.291 0-4.125 1.875-4.125 4.125s1.875 4.125 4.125 4.125 4.125-1.875 4.125-4.125S41.125 15 38.833 15zM48.375 29.5l-.042-.125a2.031 2.031 0 0 0-2.416-1.417l-4.25.959c-.334.083-.667 0-.875-.25l-1.959-2.292v.042c-.083-1.417-1.166-2.75-2.125-2.959l-.458-.125c-.292-.083-.583-.041-.917 0L27.625 24.5c-.292 0-.75.625-.917.875l-3.458 5.833c-.5.917-.25 2.084.667 2.667l.125.083a2.01 2.01 0 0 0 2.75-.583l2.916-4.875c.167-.25.417-.375.709-.417L32.042 28l-2.667 7.708c-.042.084-.042.167-.083.25 0 .084-.042.167-.042.292-.167 1.083.333 2.125 1.125 2.75l-1.042 2.542c-.083.333-.333.583-.666.625l-6.417 1.208.333 3.208 8.917-.708a.84.84 0 0 0 .75-.667l1.042-2.958 1.5 4c.125.25.208.5.25.75l1.041 8 3.625-.833-1.041-9.417c-.042-.25-.167-.5-.292-.75l-2.292-5.542c0-.041.042-.083.042-.083l1.583-6.708 2.084 2.041a.868.868 0 0 0 .833.209l6.458-1.959c1-.375 1.584-1.416 1.292-2.458z"/>
        </g>
    </g>
</svg>
