<svg xmlns="http://www.w3.org/2000/svg" width="18" height="18" viewBox="0 0 18 18">
    <g fill="none" fill-rule="evenodd">
        <path stroke="#FFF" stroke-width="1.333" d="M9.067 12.867C11.247 12.867 13 11.149 13 9c0-2.126-1.794-3.867-3.933-3.867A3.871 3.871 0 0 0 5.2 9a3.871 3.871 0 0 0 3.867 3.867z"/>
        <path fill="#FFF" d="M13.8 5.333c-.6 0-1.067-.466-1.067-1.066 0-.6.467-1.067 1.067-1.067.6 0 1.067.467 1.067 1.067 0 .6-.467 1.066-1.067 1.066z"/>
        <path stroke="#FFF" stroke-width="1.333" d="M17.267 12.733V5.4c0-1.373-.408-2.465-1.205-3.262C15.234 1.31 14.126.867 12.8.867H5.467C2.727.867.933 2.677.933 5.4v7.333c0 1.406.427 2.54 1.272 3.329.781.781 1.93 1.205 3.262 1.205h7.266c1.332 0 2.48-.424 3.262-1.205.816-.816 1.272-1.985 1.272-3.329z"/>
    </g>
</svg>
