<svg xmlns="http://www.w3.org/2000/svg" width="20" height="18" viewBox="0 0 20 18">
    <path fill="#FFF" fill-rule="evenodd" d="M19.316 17.904v-6.89c0-3.69-1.97-5.408-4.598-5.408-2.12 0-3.07 1.166-3.6 1.985V5.888H7.126c.053 1.128 0 12.016 0 12.016h3.994v-6.71c0-.359.026-.718.132-.974.288-.718.945-1.46 2.048-1.46 1.446 0 2.023 1.101 2.023 2.716v6.429h3.994zM2.917 4.248c1.392 0 2.26-.923 2.26-2.077C5.151.993 4.31.096 2.944.096 1.578.096.684.992.684 2.17c0 1.154.867 2.077 2.208 2.077h.025zm1.997 13.656V5.888H.921v12.016h3.993z"/>
</svg>
