<svg xmlns="http://www.w3.org/2000/svg" width="72" height="72" viewBox="0 0 72 72">
    <g fill="#2B2B2B" fill-rule="evenodd" transform="translate(1 1)">
        <circle cx="35" cy="35" r="35" stroke="#2B2B2B" stroke-width="2"/>
        <path fill="#FFFFFF" fill-rule="nonzero" d="M41.923 15H28.077C26.377 15 25 16.403 25 18.134v33.731C25 53.596 26.378 55 28.077 55h13.846c1.7 0 3.077-1.404 3.077-3.135v-33.73C45 16.402 43.622 15 41.923 15zm-8.436 3.326h3.026c.226 0 .41.187.41.418 0 .23-.184.417-.41.417h-3.026a.414.414 0 0 1-.41-.417c0-.231.183-.418.41-.418zm-1.764-.16c.27 0 .489.223.489.498a.493.493 0 0 1-.489.497.493.493 0 0 1-.488-.497c0-.275.219-.498.488-.498zM35 53.309c-1.062 0-1.923-.877-1.923-1.959s.86-1.96 1.923-1.96c1.062 0 1.923.878 1.923 1.96 0 1.082-.86 1.959-1.923 1.959zm8.461-5.313H26.54V22.004H43.46v25.992z"/>
    </g>
</svg>
