<svg xmlns="http://www.w3.org/2000/svg" width="72" height="72" viewBox="0 0 72 72">
    <g fill="none" fill-rule="evenodd" transform="translate(1 1)">
        <circle cx="35" cy="35" r="35" fill="#2B2B2B" stroke="#2B2B2B" stroke-width="2"/>
        <path fill="#FFF" fill-rule="nonzero" d="M22.232 20.002a.91.91 0 0 0-.554.227l-6.362 5.452a.909.909 0 0 0 0 1.378l6.362 5.452a.911.911 0 0 0 1.193-1.377l-4.488-3.848h31.16c.48.007.923-.429.923-.909 0-.48-.443-.915-.923-.909H18.369l4.502-3.862a.909.909 0 0 0-.639-1.604zM47.64 37.268a.909.909 0 0 0-.511 1.605l4.502 3.862H20.372c-.476.022-.889.475-.867.951.023.476.476.889.952.866h31.16L47.129 48.4a.91.91 0 1 0 1.193 1.378l6.362-5.453a.909.909 0 0 0 0-1.377l-6.362-5.453a.91.91 0 0 0-.682-.227z"/>
    </g>
</svg>
