<svg xmlns="http://www.w3.org/2000/svg" width="46" height="46" viewBox="0 0 46 46">
    <g fill="none" fill-rule="evenodd">
        <path fill="#66A229" d="M23 45.179C10.77 45.179.821 35.229.821 23 .821 10.77 10.771.821 23 .821c12.23 0 22.179 9.95 22.179 22.179 0 12.23-9.95 22.179-22.179 22.179z"/>
        <path fill="#FFF" d="M34.672 15.794a1.766 1.766 0 0 0-2.52.04L18.36 30.253 11.2 23.6a1.766 1.766 0 0 0-2.517.109 1.819 1.819 0 0 0 .107 2.548l8.437 7.84a1.765 1.765 0 0 0 2.485-.074l15-15.68a1.818 1.818 0 0 0-.041-2.55z"/>
    </g>
</svg>
