<svg xmlns="http://www.w3.org/2000/svg" width="72" height="72" viewBox="0 0 72 72">
    <g fill="#2B2B2B" fill-rule="evenodd" transform="translate(1 1)">
        <circle cx="35" cy="35" r="35" stroke="#2B2B2B" stroke-width="2"/>
        <g fill="#FFFFFF" fill-rule="nonzero">
            <path d="M48.225 29.694a.774.774 0 0 1-.775-.773c0-6.823-5.564-12.374-12.402-12.374a.774.774 0 1 1 0-1.547C42.741 15 49 21.245 49 28.92a.774.774 0 0 1-.775.774"/>
            <path d="M44.964 29.694a.763.763 0 0 1-.764-.762c0-5.042-4.11-9.143-9.163-9.143a.763.763 0 1 1 0-1.524c5.894 0 10.69 4.785 10.69 10.667 0 .42-.342.762-.763.762"/>
            <path d="M41.71 30.51c-.41 0-.743-.365-.743-.816 0-3.601-2.67-6.53-5.95-6.53-.411 0-.744-.366-.744-.817 0-.45.333-.816.744-.816 4.101 0 7.438 3.661 7.438 8.163 0 .45-.333.816-.744.816"/>
            <path d="M49 32.134a11.965 11.965 0 0 1-6.406 1.854c-6.74 0-12.204-5.575-12.204-12.451 0-2.398.666-4.637 1.817-6.537C26.332 16.587 22 22.047 22 28.54c0 2.706.753 5.23 2.055 7.371L35.729 55l11.727-19.176A14.087 14.087 0 0 0 49 32.134"/>
        </g>
    </g>
</svg>
