<svg xmlns="http://www.w3.org/2000/svg" width="33" height="49" viewBox="0 0 33 49">
    <g fill="#2B2B2B" fill-rule="nonzero">
        <path d="M32.052 18a.947.947 0 0 1-.947-.947c0-8.358-6.8-15.158-15.157-15.158a.948.948 0 1 1 0-1.895C25.35 0 33 7.65 33 17.053a.948.948 0 0 1-.948.947"/>
        <path d="M28.067 18a.933.933 0 0 1-.934-.933c0-6.176-5.024-11.2-11.2-11.2a.934.934 0 0 1 0-1.867C23.139 4 29 9.862 29 17.067a.933.933 0 0 1-.933.933"/>
        <path d="M24.091 19c-.502 0-.91-.448-.91-1 0-4.411-3.262-8-7.272-8-.502 0-.909-.448-.909-1s.407-1 .91-1C20.921 8 25 12.486 25 18c0 .552-.407 1-.909 1"/>
        <path d="M33 20.99a14.6 14.6 0 0 1-7.83 2.27c-8.238 0-14.916-6.829-14.916-15.253 0-2.937.814-5.68 2.221-8.007C5.295 1.944 0 8.632 0 16.587c0 3.314.92 6.406 2.512 9.03L16.78 49l14.333-23.49A17.277 17.277 0 0 0 33 20.99"/>
    </g>
</svg>
