<svg xmlns="http://www.w3.org/2000/svg" width="24" height="20" viewBox="0 0 24 20">
    <path fill="#FFF" fill-rule="nonzero" d="M23.922 2.47a9.533 9.533 0 0 1-2.787.777A4.926 4.926 0 0 0 23.268.519a9.618 9.618 0 0 1-3.08 1.197A4.81 4.81 0 0 0 16.647.16c-2.679 0-4.851 2.207-4.851 4.93 0 .386.043.762.126 1.124-4.032-.206-7.607-2.169-10-5.152a4.966 4.966 0 0 0-.657 2.48c0 1.71.857 3.219 2.158 4.103a4.779 4.779 0 0 1-2.197-.617v.062c0 2.389 1.672 4.38 3.891 4.834a4.804 4.804 0 0 1-2.19.084c.617 1.959 2.408 3.385 4.53 3.424a9.634 9.634 0 0 1-7.181 2.042 13.57 13.57 0 0 0 7.436 2.215c8.924 0 13.803-7.512 13.803-14.028 0-.213-.004-.426-.013-.638a9.916 9.916 0 0 0 2.42-2.551z"/>
</svg>
